<?xml version="1.0" encoding="UTF-8" standalone="no"?>
<!-- Created with Inkscape (http://www.inkscape.org/) -->

<svg
   width="210mm"
   height="297mm"
   viewBox="0 0 210 297"
   version="1.1"
   id="svg5"
   inkscape:version="1.1 (c68e22c387, 2021-05-23)"
   sodipodi:docname="download.svg"
   xmlns:inkscape="http://www.inkscape.org/namespaces/inkscape"
   xmlns:sodipodi="http://sodipodi.sourceforge.net/DTD/sodipodi-0.dtd"
   xmlns="http://www.w3.org/2000/svg"
   xmlns:svg="http://www.w3.org/2000/svg">
  <sodipodi:namedview
     id="namedview7"
     pagecolor="#ffffff"
     bordercolor="#666666"
     borderopacity="1.0"
     inkscape:pageshadow="2"
     inkscape:pageopacity="0.0"
     inkscape:pagecheckerboard="0"
     inkscape:document-units="mm"
     showgrid="false"
     inkscape:zoom="0.80087682"
     inkscape:cx="396.44049"
     inkscape:cy="560.63553"
     inkscape:window-width="2263"
     inkscape:window-height="1148"
     inkscape:window-x="1035"
     inkscape:window-y="114"
     inkscape:window-maximized="0"
     inkscape:current-layer="layer1" />
  <defs
     id="defs2" />
  <g
     inkscape:label="Layer 1"
     inkscape:groupmode="layer"
     id="layer1">
    <path
       style="fill:#000dd8;stroke-width:0.264583;fill-opacity:1"
       d="m 105.97916,146.55056 c -10.915542,-0.60757 -20.987342,-6.81366 -26.795522,-16.51099 -1.75245,-2.92589 -3.33519,-7.17586 -4.0806,-10.9572 -0.66873,-3.39239 -0.59337,-9.39979 0.16279,-12.97599 2.79508,-13.219264 13.00068,-23.419348 26.232972,-26.218799 3.55779,-0.752692 9.57338,-0.826692 12.95843,-0.159406 3.78134,0.745407 8.03131,2.328148 10.9572,4.080601 8.49825,5.08999 14.48251,13.69721 16.14287,23.218414 0.53256,3.0539 0.54405,8.84441 0.0234,11.80306 -2.35981,13.4104 -12.82563,24.27347 -26.11953,27.11095 -2.79926,0.59748 -6,0.80317 -9.48203,0.60936 z m 21.61263,-17.73614 c 0.59614,-0.56004 0.61236,-0.70156 0.61236,-5.34076 0,-4.52867 -0.0286,-4.7959 -0.57528,-5.37784 -0.66131,-0.70392 -1.95512,-0.81583 -2.74758,-0.23764 -0.45098,0.32904 -0.52972,0.80485 -0.64589,3.90261 l -0.13229,3.52788 -15.27968,0.0683 -15.279692,0.0683 v -3.35854 c 0,-3.08413 -0.047,-3.40856 -0.57529,-3.9709 -0.67667,-0.72028 -1.93493,-0.8102 -2.80542,-0.20048 -0.57247,0.40097 -0.58804,0.54455 -0.58804,5.42396 0,4.6593 0.0372,5.04932 0.52917,5.54124 0.51889,0.5189 0.88194,0.52917 18.702212,0.52917 h 18.17305 z m -14.00252,-16.15961 c 2.67546,-2.65575 4.97892,-5.037 5.11878,-5.29166 0.16669,-0.30349 0.15673,-0.64534 -0.0289,-0.99219 -0.26167,-0.48895 -0.55399,-0.52917 -3.84576,-0.52917 h -3.56257 v -5.3048 c 0,-4.224214 -0.0817,-5.462914 -0.40135,-6.080944 -0.92449,-1.78777 -3.57993,-2.07315 -4.95646,-0.53267 l -0.7276,0.81426 v 5.552084 5.55207 h -3.40719 c -3.604682,0 -4.225312,0.19983 -3.891102,1.25284 0.20978,0.66094 10.016372,10.38883 10.472872,10.38883 0.20064,0 2.55381,-2.17289 5.22928,-4.82865 z"
       id="path874"
       inkscape:export-filename="d:\Downloads\download_hover.png"
       inkscape:export-xdpi="9.4328842"
       inkscape:export-ydpi="9.4328842" />
    <path
       style="fill:#004af4;fill-opacity:1;stroke-width:0.264583"
       d="m 24.43368,147.25035 c -10.91554,-0.60757 -20.9873396,-6.81366 -26.7955196,-16.51099 -1.75245,-2.92589 -3.33519,-7.17586 -4.0806,-10.9572 -0.66873,-3.39239 -0.59337,-9.39979 0.16279,-12.97599 2.79508,-13.219273 13.00068,-23.419353 26.2329696,-26.218803 3.55779,-0.7527 9.57338,-0.8267 12.95843,-0.15941 3.78134,0.74541 8.03131,2.32815 10.9572,4.0806 8.49825,5.08999 14.48251,13.69721 16.14287,23.218423 0.53256,3.0539 0.54405,8.84441 0.0234,11.80306 -2.35981,13.4104 -12.82563,24.27347 -26.11953,27.11095 -2.79926,0.59748 -6,0.80317 -9.48203,0.60936 z m 21.61263,-17.73614 c 0.59614,-0.56004 0.61236,-0.70156 0.61236,-5.34076 0,-4.52867 -0.0286,-4.7959 -0.57528,-5.37784 -0.66131,-0.70392 -1.95512,-0.81583 -2.74758,-0.23764 -0.45098,0.32904 -0.52972,0.80485 -0.64589,3.90261 l -0.13229,3.52788 -15.27968,0.0683 -15.27969,0.0683 v -3.35854 c 0,-3.08413 -0.047,-3.40856 -0.57529,-3.9709 -0.67667,-0.72028 -1.9349296,-0.8102 -2.8054196,-0.20048 -0.57247,0.40097 -0.58804,0.54455 -0.58804,5.42396 0,4.6593 0.0372,5.04932 0.52917,5.54124 0.51889,0.5189 0.88194,0.52917 18.7022096,0.52917 H 45.43394 Z M 32.04379,113.3546 c 2.67546,-2.65575 4.97892,-5.037 5.11878,-5.29166 0.16669,-0.30349 0.15673,-0.64534 -0.0289,-0.99219 -0.26167,-0.48895 -0.55399,-0.52917 -3.84576,-0.52917 h -3.56257 v -5.3048 c 0,-4.224223 -0.0817,-5.462923 -0.40135,-6.080953 -0.92449,-1.78777 -3.57993,-2.07315 -4.95646,-0.53267 l -0.7276,0.81426 v 5.552093 5.55207 h -3.40719 c -3.60468,0 -4.22531,0.19983 -3.8911,1.25284 0.20978,0.66094 10.01637,10.38883 10.47287,10.38883 0.20064,0 2.55381,-2.17289 5.22928,-4.82865 z"
       id="path874-5"
       inkscape:export-filename="d:\Downloads\download_up.png"
       inkscape:export-xdpi="9.4328842"
       inkscape:export-ydpi="9.4328842" />
    <path
       style="fill:#001b98;fill-opacity:1;stroke-width:0.264583"
       d="m 187.63501,148.57182 c -10.91554,-0.60757 -20.98734,-6.81366 -26.79552,-16.51099 -1.75245,-2.92589 -3.33519,-7.17586 -4.0806,-10.9572 -0.66873,-3.39239 -0.59337,-9.39979 0.16279,-12.97599 2.79508,-13.219273 13.00068,-23.419353 26.23297,-26.218803 3.55779,-0.7527 9.57338,-0.8267 12.95843,-0.15941 3.78134,0.74541 8.03131,2.32815 10.9572,4.0806 8.49825,5.08999 14.48251,13.69721 16.14287,23.218423 0.53256,3.0539 0.54405,8.84441 0.0234,11.80306 -2.35981,13.4104 -12.82563,24.27347 -26.11953,27.11095 -2.79926,0.59748 -6,0.80317 -9.48203,0.60936 z m 21.61263,-17.73614 c 0.59614,-0.56004 0.61236,-0.70156 0.61236,-5.34076 0,-4.52867 -0.0286,-4.7959 -0.57528,-5.37784 -0.66131,-0.70392 -1.95512,-0.81583 -2.74758,-0.23764 -0.45098,0.32904 -0.52972,0.80485 -0.64589,3.90261 l -0.13229,3.52788 -15.27968,0.0683 -15.27969,0.0683 v -3.35854 c 0,-3.08413 -0.047,-3.40856 -0.57529,-3.9709 -0.67667,-0.72028 -1.93493,-0.8102 -2.80542,-0.20048 -0.57247,0.40097 -0.58804,0.54455 -0.58804,5.42396 0,4.6593 0.0372,5.04932 0.52917,5.54124 0.51889,0.5189 0.88194,0.52917 18.70221,0.52917 h 18.17305 z m -14.00252,-16.15961 c 2.67546,-2.65575 4.97892,-5.037 5.11878,-5.29166 0.16669,-0.30349 0.15673,-0.64534 -0.0289,-0.99219 -0.26167,-0.48895 -0.55399,-0.52917 -3.84576,-0.52917 h -3.56257 v -5.3048 c 0,-4.224223 -0.0817,-5.462923 -0.40135,-6.080953 -0.92449,-1.78777 -3.57993,-2.07315 -4.95646,-0.53267 l -0.7276,0.81426 v 5.552093 5.55207 h -3.40719 c -3.60468,0 -4.22531,0.19983 -3.8911,1.25284 0.20978,0.66094 10.01637,10.38883 10.47287,10.38883 0.20064,0 2.55381,-2.17289 5.22928,-4.82865 z"
       id="path874-5-7"
       inkscape:export-filename="d:\Downloads\download_down.png"
       inkscape:export-xdpi="9.4328842"
       inkscape:export-ydpi="9.4328842" />
  </g>
</svg>
