<?xml version="1.0" encoding="UTF-8" standalone="no"?>
<!-- Created with Inkscape (http://www.inkscape.org/) -->

<svg
   xmlns:dc="http://purl.org/dc/elements/1.1/"
   xmlns:cc="http://creativecommons.org/ns#"
   xmlns:rdf="http://www.w3.org/1999/02/22-rdf-syntax-ns#"
   xmlns:svg="http://www.w3.org/2000/svg"
   xmlns="http://www.w3.org/2000/svg"
   xmlns:sodipodi="http://sodipodi.sourceforge.net/DTD/sodipodi-0.dtd"
   xmlns:inkscape="http://www.inkscape.org/namespaces/inkscape"
   width="210mm"
   height="297mm"
   viewBox="0 0 210 297"
   version="1.1"
   id="svg8"
   inkscape:export-filename="D:\OneDrive\Documents\Work\Repositories\YTMusicUploader\YTMusicUploader\Resources\unhappy.png"
   inkscape:export-xdpi="8.2976236"
   inkscape:export-ydpi="8.2976236"
   inkscape:version="0.92.5 (2060ec1f9f, 2020-04-08)"
   sodipodi:docname="unhappy.svg">
  <defs
     id="defs2" />
  <sodipodi:namedview
     id="base"
     pagecolor="#ffffff"
     bordercolor="#666666"
     borderopacity="1.0"
     inkscape:pageopacity="0.0"
     inkscape:pageshadow="2"
     inkscape:zoom="0.49497475"
     inkscape:cx="186.88463"
     inkscape:cy="408.31244"
     inkscape:document-units="mm"
     inkscape:current-layer="layer1"
     showgrid="false"
     showguides="false"
     inkscape:window-width="2560"
     inkscape:window-height="1017"
     inkscape:window-x="-8"
     inkscape:window-y="-8"
     inkscape:window-maximized="1" />
  <metadata
     id="metadata5">
    <rdf:RDF>
      <cc:Work
         rdf:about="">
        <dc:format>image/svg+xml</dc:format>
        <dc:type
           rdf:resource="http://purl.org/dc/dcmitype/StillImage" />
        <dc:title></dc:title>
      </cc:Work>
    </rdf:RDF>
  </metadata>
  <g
     inkscape:label="Layer 1"
     inkscape:groupmode="layer"
     id="layer1">
    <path
       style="fill:#ff0000;stroke:#ff0000;stroke-width:4.96500015;stroke-linejoin:round;stroke-miterlimit:4;stroke-dasharray:none;stroke-dashoffset:0;stroke-opacity:1"
       d="m 96.683748,138.03169 c -6.799396,-0.74688 -13.540093,-2.72671 -19.843753,-5.8284 -11.581744,-5.69873 -21.270436,-15.38743 -26.969176,-26.96917 -3.18409,-6.471151 -5.08862,-13.055321 -5.84922,-20.221441 -0.48154,-4.53692 -0.48154,-7.67228 0,-12.20921 0.7606,-7.16611 2.66513,-13.75028 5.84922,-20.22143 5.69874,-11.581752 15.387432,-21.270442 26.969176,-26.969183 6.471149,-3.184095 13.055321,-5.088621 20.221433,-5.849218 4.536922,-0.48154 7.672292,-0.48154 12.209212,0 7.16612,0.760597 13.75029,2.665123 20.22144,5.849218 11.58174,5.698741 21.27044,15.387431 26.96917,26.969183 3.1841,6.47115 5.08862,13.05532 5.84922,20.22143 0.48154,4.53693 0.48154,7.67229 0,12.20921 -0.7606,7.16612 -2.66512,13.75029 -5.84922,20.221441 -5.69873,11.58174 -15.38743,21.27044 -26.96917,26.96917 -10.27482,5.05567 -21.57209,7.06263 -32.808332,5.8284 z m 12.076652,-5.16361 c 11.59605,-1.18319 23.39275,-6.6138 31.64956,-14.56987 13.86945,-13.36429 19.76231,-32.302621 15.78705,-50.736051 -2.07194,-9.60768 -7.04906,-19.057062 -13.64084,-25.898012 -13.36429,-13.869453 -32.30262,-19.762312 -50.736058,-15.787053 -8.652316,1.865914 -17.476146,6.243323 -23.8923,11.852713 -6.092895,5.32677 -9.978813,10.36227 -13.445213,17.422762 -10.46774,21.32099 -5.9213,46.417151 11.43951,63.145641 3.864459,3.7237 8.129762,6.66243 13.488413,9.29331 9.195541,4.51463 19.196256,6.31258 29.349878,5.27656 z M 65.674936,105.42667 c -0.86614,-0.68064 -1.212358,-1.81158 -0.871112,-2.84557 0.32449,-0.98321 1.985346,-2.36643 5.950754,-4.955991 7.245781,-4.73177 14.774074,-7.6007 23.870871,-9.09687 3.984399,-0.65532 13.096771,-0.65532 17.081171,0 8.88763,1.46177 16.5504,4.34372 23.474,8.82853 5.85112,3.790111 6.95746,4.978401 6.34966,6.820031 -0.35766,1.08373 -1.27432,1.71878 -2.48098,1.71878 -0.70056,0 -1.40785,-0.36732 -3.0458,-1.58179 -8.11953,-6.020271 -17.01186,-9.592351 -26.70052,-10.725691 -13.758982,-1.60947 -27.401554,2.14494 -38.97441,10.725691 -2.330445,1.72792 -3.511545,2.01037 -4.653634,1.11288 z M 82.193698,70.954979 c -3.504816,-0.85282 -6.018017,-3.89731 -6.066964,-7.34952 -0.117325,-8.27447 10.684533,-10.95743 14.554699,-3.61509 0.920054,1.74549 0.986605,4.66544 0.14805,6.49574 -1.524251,3.32693 -5.299667,5.28065 -8.635785,4.46887 z m 38.711312,8e-4 c -4.77555,-0.97569 -7.45367,-6.61927 -5.21776,-10.99534 3.13675,-6.13915 12.0687,-5.46534 14.20022,1.07123 1.79046,5.49068 -3.27732,11.08972 -8.98246,9.92411 z"
       id="path852"
       inkscape:connector-curvature="0"
       inkscape:export-xdpi="8.2155457"
       inkscape:export-ydpi="8.2155457"
       inkscape:export-filename="D:\OneDrive\Documents\Work\Repositories\YTMusicUploader\YTMusicUploader\Resources\unhappy.png" />
    <path
       style="fill:#00bd00;fill-opacity:1;stroke:#00bd00;stroke-width:4.96500063;stroke-linejoin:round;stroke-miterlimit:4;stroke-dasharray:none;stroke-dashoffset:0;stroke-opacity:1"
       d="m 99.356446,283.4384 c -6.799395,-0.74688 -13.540095,-2.72671 -19.843755,-5.8284 -11.58174,-5.69873 -21.27043,-15.38743 -26.96917,-26.96917 -3.18409,-6.47115 -5.08862,-13.05532 -5.84922,-20.22144 -0.48154,-4.53692 -0.48154,-7.67228 0,-12.20921 0.7606,-7.16611 2.66513,-13.75028 5.84922,-20.22143 5.69874,-11.58175 15.38743,-21.27044 26.96917,-26.96918 6.47115,-3.1841 13.05533,-5.08862 20.221435,-5.84922 4.536924,-0.48154 7.672294,-0.48154 12.209214,0 7.16612,0.7606 13.75029,2.66512 20.22144,5.84922 11.58174,5.69874 21.27044,15.38743 26.96917,26.96918 3.1841,6.47115 5.08862,13.05532 5.84922,20.22143 0.48154,4.53693 0.48154,7.67229 0,12.20921 -0.7606,7.16612 -2.66512,13.75029 -5.84922,20.22144 -5.69873,11.58174 -15.38743,21.27044 -26.96917,26.96917 -10.27482,5.05567 -21.57209,7.06263 -32.808334,5.8284 z m 12.076654,-5.16361 c 11.59605,-1.18319 23.39275,-6.6138 31.64956,-14.56987 13.86945,-13.36429 19.76231,-32.30262 15.78705,-50.73605 -2.07194,-9.60768 -7.04906,-19.05706 -13.64084,-25.89801 -13.36429,-13.86945 -32.30262,-19.76231 -50.736059,-15.78705 -8.65232,1.86591 -17.47615,6.24332 -23.8923,11.85271 -6.09289,5.32677 -9.97881,10.36227 -13.44521,17.42276 -10.46774,21.32099 -5.9213,46.41715 11.43951,63.14564 3.86446,3.7237 8.12976,6.66243 13.48841,9.29331 9.19554,4.51463 19.196259,6.31258 29.349879,5.27656 z m -26.566699,-61.9131 c -3.50482,-0.85282 -6.01802,-3.89731 -6.06697,-7.34952 -0.11732,-8.27447 10.68454,-10.95743 14.5547,-3.61509 0.92006,1.74549 0.98661,4.66544 0.14805,6.49574 -1.52425,3.32693 -5.29967,5.28065 -8.63578,4.46887 z m 38.711309,8e-4 c -4.77555,-0.97569 -7.45367,-6.61927 -5.21776,-10.99534 3.13675,-6.13915 12.0687,-5.46534 14.20022,1.07123 1.79046,5.49068 -3.27732,11.08972 -8.98246,9.92411 z"
       id="path852-6"
       inkscape:connector-curvature="0"
       inkscape:export-xdpi="8.2155457"
       inkscape:export-ydpi="8.2155457"
       inkscape:export-filename="D:\OneDrive\Documents\Work\Repositories\YTMusicUploader\YTMusicUploader\Resources\happy.png"
       sodipodi:nodetypes="cccssssssscsssscssssssccsscscscscss" />
    <path
       style="fill:#00bd00;fill-opacity:1;stroke:#00bd00;stroke-width:4.96500063;stroke-linejoin:round;stroke-miterlimit:4;stroke-dasharray:none;stroke-dashoffset:0;stroke-opacity:1"
       d="m 143.56284,241.02776 c 0.86729,0.67918 1.21542,1.80953 0.87593,2.84409 -0.32283,0.98376 -1.98135,2.36979 -5.94237,4.96605 -7.23777,4.74403 -14.7612,7.62568 -23.85544,9.13724 -3.9833,0.66206 -13.09565,0.67747 -17.081154,0.0289 -8.890088,-1.44673 -16.557718,-4.31572 -23.4889,-8.78881 -5.85753,-3.7802 -6.96587,-4.96662 -6.36119,-6.80928 0.35583,-1.08433 1.27141,-1.72093 2.47807,-1.72297 0.70055,-10e-4 1.40847,0.36493 3.04847,1.57664 8.129702,6.00652 17.028071,9.56356 26.718627,10.6805 13.761677,1.5862 27.397887,-2.19129 38.956207,-10.7916 2.32753,-1.73186 3.50814,-2.01631 4.65175,-1.12075 z"
       id="path852-6-7"
       inkscape:connector-curvature="0"
       inkscape:export-xdpi="8.2155457"
       inkscape:export-ydpi="8.2155457"
       inkscape:export-filename="D:\OneDrive\Documents\Work\Repositories\YTMusicUploader\YTMusicUploader\Resources\happy.png"
       sodipodi:nodetypes="cccccsscccccc" />
  </g>
</svg>
