<?xml version="1.0" encoding="UTF-8" standalone="no"?>
<!-- Created with Inkscape (http://www.inkscape.org/) -->

<svg
   xmlns:dc="http://purl.org/dc/elements/1.1/"
   xmlns:cc="http://creativecommons.org/ns#"
   xmlns:rdf="http://www.w3.org/1999/02/22-rdf-syntax-ns#"
   xmlns:svg="http://www.w3.org/2000/svg"
   xmlns="http://www.w3.org/2000/svg"
   xmlns:sodipodi="http://sodipodi.sourceforge.net/DTD/sodipodi-0.dtd"
   xmlns:inkscape="http://www.inkscape.org/namespaces/inkscape"
   width="210mm"
   height="297mm"
   viewBox="0 0 210 297"
   version="1.1"
   id="svg8"
   inkscape:export-filename="D:\Downloads\idle.png"
   inkscape:export-xdpi="10.963458"
   inkscape:export-ydpi="10.963458"
   inkscape:version="0.92.5 (2060ec1f9f, 2020-04-08)"
   sodipodi:docname="idle.svg">
  <defs
     id="defs2" />
  <sodipodi:namedview
     id="base"
     pagecolor="#ffffff"
     bordercolor="#666666"
     borderopacity="1.0"
     inkscape:pageopacity="0.0"
     inkscape:pageshadow="2"
     inkscape:zoom="0.35"
     inkscape:cx="-225.99864"
     inkscape:cy="604.16794"
     inkscape:document-units="mm"
     inkscape:current-layer="layer1"
     showgrid="false"
     inkscape:window-width="1509"
     inkscape:window-height="890"
     inkscape:window-x="399"
     inkscape:window-y="26"
     inkscape:window-maximized="0" />
  <metadata
     id="metadata5">
    <rdf:RDF>
      <cc:Work
         rdf:about="">
        <dc:format>image/svg+xml</dc:format>
        <dc:type
           rdf:resource="http://purl.org/dc/dcmitype/StillImage" />
        <dc:title />
      </cc:Work>
    </rdf:RDF>
  </metadata>
  <g
     inkscape:label="Layer 1"
     inkscape:groupmode="layer"
     id="layer1">
    <path
       style="fill:#ff0000;stroke-width:0.35277775"
       d="m -334.57798,117.52736 c -8.7828,-3.65506 -11.02941,-15.86826 -3.61478,-19.650927 7.19206,-3.66911 14.35928,3.572977 10.48755,10.597107 -1.26612,2.297 -1.25533,2.1485 -0.15594,2.1485 2.43596,0 5.08622,-2.45207 5.82438,-5.38882 0.4621,-1.83843 0.33584,-2.79564 -1.29002,-9.780627 l -0.8622,-3.70416 -4.84172,-0.0199 c -11.96023,-0.0492 -20.70461,-6.237 -23.73251,-16.79393 -3.19566,-11.14186 0.72435,-21.41898 12.81354,-33.59332 l 4.86459,-4.898861 -0.52178,-1.80392 c -3.47051,-11.99837 1.7302,-26.5314985 11.1851,-31.2561645 3.30901,-1.653535 4.52951,-0.915847 6.9962,4.228635 4.53284,9.4536035 2.23666,18.0681895 -8.31173,31.1831095 l -2.59626,3.227961 0.93473,4.16061 0.93473,4.16062 3.60104,0.1359 c 20.54475,0.77537 24.92237,27.53866 6.29045,38.45769 l -1.50116,0.87974 0.89445,3.43538 c 1.47141,5.65133 1.36055,12.640367 -0.26333,16.601377 -2.8052,6.84252 -10.66989,10.36472 -17.13533,7.67404 z m 8.85845,-34.215777 c -0.11763,-0.46867 -1.02444,-4.95336 -2.01513,-9.96598 -1.93879,-9.8097 -2.04121,-10.10747 -3.1358,-9.11688 -2.74507,2.48425 -4.29192,6.58498 -3.43387,9.10322 0.76991,2.25955 0.26255,2.33817 -1.76916,0.27416 -6.08575,-6.1825 -5.19438,-14.52614 2.07958,-19.46579 1.27214,-0.8639 2.04295,-1.61955 1.93609,-1.89803 -0.0977,-0.25447 -0.3681,-1.43125 -0.601,-2.61507 -0.5268,-2.67764 -0.36667,-2.70574 -3.62901,0.63678 -15.43691,15.81629 -11.56746,33.76331 7.30434,33.87849 l 3.47783,0.0212 -0.21387,-0.85212 z m 9.95225,-3.86054 c 5.48182,-5.25299 4.10605,-15.74373 -2.36401,-18.0265 -2.55265,-0.90062 -6.10136,-0.74967 -5.86716,0.24958 0.19233,0.82064 2.65321,12.31332 3.56921,16.66875 0.83973,3.99279 0.70914,3.78956 2.01373,3.13386 0.618,-0.31061 1.8097,-1.22217 2.64823,-2.02569 z M -329.0697,31.335232 c 6.14353,-5.45568 9.12724,-14.00529 6.62972,-18.996946 -1.12479,-2.248036 -1.34847,-2.25413 -3.50705,-0.09554 -4.3613,4.361303 -6.03156,11.095206 -4.69188,18.916106 0.2374,1.3859 0.21059,1.38289 1.56921,0.17638 z"
       id="path855"
       inkscape:connector-curvature="0"
       sodipodi:nodetypes="cccscsccsscscssccccscsscccsscscccscccccccsccccccc"
       inkscape:export-xdpi="8.3322287"
       inkscape:export-ydpi="8.3322287" />
    <path
       style="fill:#ff0000;stroke-width:0.35277775"
       d="m -253.88505,100.41394 c -0.86734,-0.17798 -2.40652,-0.894917 -3.42041,-1.593207 -10.95113,-7.54233 -0.88921,-21.89379 12.02803,-17.15573 1.15045,0.42199 2.13343,0.72555 2.1844,0.67458 0.15118,-0.15118 -2.99264,-22.57467 -3.29755,-23.51995 -0.30674,-0.95097 0.82687,-0.61864 -15.75114,-4.61761 -4.0503,-0.97703 -7.40999,-1.73009 -7.46593,-1.67349 -0.0559,0.0566 0.42237,5.34168 1.06295,11.7446 2.41714,24.16073 2.48512,22.70206 -1.213,26.027 -9.04982,8.13651 -21.52029,5.4051 -21.53039,-4.7158 -0.008,-7.59084 7.61288,-11.82946 16.39245,-9.11774 1.30407,0.40278 2.41562,0.68153 2.47013,0.61944 0.0545,-0.0621 -0.26316,-4.31978 -0.70593,-9.46152 -1.93492,-22.46947 -2.6951,-32.161615 -2.53512,-32.321605 0.0944,-0.0943 3.16612,0.554057 6.82614,1.440904 3.66003,0.886844 8.63895,2.091318 11.06431,2.676615 2.42534,0.58529 6.54661,1.58111 9.15838,2.212926 l 4.74866,1.14876 1.14893,7.57051 c 0.63191,4.16377 1.62701,10.58675 2.21135,14.27328 3.57312,22.54258 3.90755,25.58771 3.05526,27.81941 -1.9049,4.9879 -10.54289,9.176977 -16.43152,7.968627 z m 6.49798,-49.634567 c -0.13064,-0.92163 -0.41818,-1.85792 -0.63898,-2.08064 -0.43955,-0.44339 -22.00736,-5.97619 -22.27048,-5.71307 -0.0893,0.0893 -0.0684,0.95489 0.0463,1.92358 l 0.20859,1.76126 11.15986,2.85906 c 6.13793,1.57248 11.28865,2.874 11.44606,2.89228 0.15741,0.0183 0.17931,-0.72084 0.0487,-1.64247 z"
       id="path855-7"
       inkscape:connector-curvature="0"
       sodipodi:nodetypes="cccscscsccccscssscsccccccccsccc"
       inkscape:export-xdpi="8.3322287"
       inkscape:export-ydpi="8.3322287" />
    <path
       style="fill:#ff0000;stroke:#ff0000;stroke-width:2.56500006;stroke-miterlimit:4;stroke-dasharray:none;stroke-opacity:1"
       d="m -213.13747,97.642803 c -4.45893,-0.88216 -6.74089,-4.44188 -5.06575,-7.90225 2.5635,-5.29548 11.97674,-7.63274 16.93457,-4.20476 l 0.71497,0.49435 0.30163,-1.1335 c 0.16589,-0.62343 2.08337,-7.56288 4.26107,-15.421 2.17769,-7.85813 5.04244,-18.21657 6.3661,-23.01875 1.32367,-4.80219 2.47773,-8.80725 2.56458,-8.900132 0.0869,-0.09288 0.70472,-0.0054 1.37304,0.194299 l 1.21511,0.363173 -0.50895,2.583825 c -0.91429,4.641625 -0.45372,6.693775 2.7529,12.266005 2.65543,4.61441 4.11574,7.78529 4.76154,10.33911 1.26072,4.98547 -0.20667,10.9479 -3.62301,14.72138 -1.77466,1.96017 -1.88215,1.19719 -0.26436,-1.87635 1.75142,-3.32738 2.33896,-5.28927 2.35485,-7.86319 0.0243,-3.941 -1.36512,-6.52659 -6.44799,-11.99888 -1.67349,-1.80171 -3.0623,-3.26207 -3.08625,-3.24525 -0.0468,0.0329 -3.1069,11.05685 -7.79362,28.07642 -3.18295,11.55871 -3.46163,12.23224 -5.78631,13.9845 -1.66972,1.25857 -2.64326,1.71088 -4.9551,2.30215 -2.08247,0.5326 -4.16917,0.61472 -6.06902,0.23885 z"
       id="path825"
       inkscape:connector-curvature="0"
       sodipodi:nodetypes="sssccccccccsccccccsccs" />
    <path
       style="fill:#ff0000;stroke-width:0.26458335"
       d="m -169.87275,95.673633 c -1.93929,-2.25551 -1.87836,-4.67857 0.22278,-8.85933 1.5782,-3.14022 4.38662,-4.83599 7.68427,-4.63989 3.29121,0.19573 8.36736,2.93324 9.98253,5.38348 l 0.75747,1.14908 0.37845,-0.60397 c 0.20756,-0.33257 0.56131,-1.12289 0.78528,-1.75682 0.38234,-1.08218 6.05928,-15.91686 8.64027,-22.5783 0.64353,-1.66092 1.91602,-4.99207 2.82778,-7.40255 0.91174,-2.41048 1.71231,-4.39445 1.77903,-4.40883 0.16141,-0.0348 7.3727,0.81759 28.84718,3.40971 2.16396,0.2612 6.89453,0.81671 10.512365,1.23446 23.892,2.75879 28.41912,3.28061 32.69303,3.7684 2.62538,0.29962 4.78543,0.60217 4.80011,0.67231 0.0147,0.0701 -0.30818,1.08623 -0.7175,2.25795 l -0.74421,2.13042 -1.80676,0.0663 c -0.99373,0.0365 -2.23553,0.11945 -2.75957,0.18438 l -0.9528,0.11805 -3.21478,5.79526 c -1.76813,3.18738 -3.73784,6.73262 -4.37715,7.87831 -1.72544,3.09213 -2.85402,5.15547 -3.75411,6.8635 -2.16523,4.10885 -5.57487,9.80639 -6.70553,11.20502 -3.15656,3.904647 -7.228,5.358737 -11.72001,4.185737 -2.09522,-0.54714 -4.688165,-2.452147 -5.690935,-4.181097 -0.96667,-1.66668 -1.34268,-3.69663 -0.98847,-5.3365 0.42828,-1.98273 2.26904,-4.41726 4.106485,-5.4311 1.92828,-1.06395 3.96804,-1.49115 5.90982,-1.23772 1.43644,0.18746 1.91346,0.39038 3.86472,1.64401 2.05091,1.31757 2.31595,1.57065 3.36884,3.216 0.62856,0.98223 1.24531,1.76325 1.37056,1.7356 0.27238,-0.0601 8.24164,-26.52446 8.20116,-27.23445 -0.0241,-0.42282 -0.30244,-0.48522 -1.9549,-0.4383 -1.05974,0.0301 -6.63247,0.0397 -12.38383,0.0214 -5.75137,-0.0183 -10.518385,-0.022 -10.593395,-0.008 -0.14508,0.0268 -0.48239,0.69468 -7.00361,13.86843 -6.65258,13.4391 -7.22076,14.49376 -8.57579,15.91857 -1.32636,1.39467 -4.93097,3.78715 -6.18526,4.10535 -1.19791,0.30388 -3.99055,0.17182 -5.69129,-0.26914 -0.92915,-0.2409 -2.22191,-0.84875 -3.50076,-1.64602 -1.76112,-1.09795 -2.12613,-1.43287 -2.77712,-2.54856 -0.47895,-0.82079 -0.76176,-1.78693 -0.78346,-2.67636 -0.0291,-1.19373 0.12026,-1.6639 1.04926,-3.30263 1.40917,-2.48572 2.77482,-3.64404 4.88898,-4.14678 2.85944,-0.67995 5.34792,-0.29081 8.89657,1.39124 2.02506,0.95988 2.4917,1.29347 4.17645,2.98565 l 0.64588,0.64874 0.37088,-0.83063 c 0.37855,-0.84784 1.7637,-4.43828 6.33408,-16.41864 1.41872,-3.71887 2.60917,-6.80811 2.64547,-6.86496 0.26296,-0.41192 -1.14232,-0.46171 -4.80971,-0.17042 -4.14943,0.32958 -7.8251,0.60458 -19.62367,1.46821 -3.20534,0.23462 -5.9112,0.54568 -6.01302,0.69123 -0.1014,0.14583 -1.93817,5.471 -4.08079,11.83433 -2.14262,6.36331 -4.2716,12.31847 -4.73108,13.23366 -0.89983,1.79232 -2.9354,4.4491 -4.03773,5.26989 -4.89689,3.646337 -7.50699,3.964907 -14.06478,1.71664 -2.59057,-0.88814 -4.58394,-1.99774 -5.49727,-3.05998 z"
       id="path838"
       inkscape:connector-curvature="0"
       sodipodi:nodetypes="ccccccccccscccccccccssccccsccccccscscccsccccsccccssccsccscc" />
    <path
       style="fill:#ff0000;stroke-width:0.35277775"
       d="m 71.888293,202.06741 c -8.7828,-3.65506 -11.02941,-15.86827 -3.61478,-19.65093 7.19206,-3.66912 14.35928,3.57297 10.48755,10.5971 -1.26612,2.297 -1.25533,2.1485 -0.15594,2.1485 2.43596,0 5.08622,-2.45207 5.82438,-5.38881 0.4621,-1.83844 0.33584,-2.79565 -1.29002,-9.78063 l -0.8622,-3.70416 -4.84172,-0.0199 c -11.96023,-0.0492 -20.70461,-6.23701 -23.73251,-16.79393 -3.19566,-11.14186 0.72435,-21.41898 12.81354,-33.59332 l 4.86459,-4.89886 -0.52178,-1.80393 c -3.47051,-11.99837 1.7302,-26.5315 11.1851,-31.25616 3.30901,-1.65354 4.52951,-0.91585 6.9962,4.22863 4.53284,9.45361 2.23666,18.06819 -8.31173,31.18311 l -2.59626,3.22797 0.93473,4.16061 0.93473,4.16062 3.60104,0.13589 c 20.544747,0.77538 24.922367,27.53867 6.29045,38.45769 l -1.50116,0.87975 0.89445,3.43538 c 1.47141,5.65133 1.36055,12.64037 -0.26333,16.60137 -2.8052,6.84253 -10.66989,10.36472 -17.13533,7.67404 z m 8.85845,-34.21579 c -0.11763,-0.46867 -1.02444,-4.95336 -2.01513,-9.96597 -1.93879,-9.8097 -2.04121,-10.10747 -3.1358,-9.11688 -2.74507,2.48425 -4.29192,6.58498 -3.43387,9.10322 0.76991,2.25955 0.26255,2.33817 -1.76916,0.27415 -6.08575,-6.1825 -5.19438,-14.52613 2.07958,-19.46579 1.27214,-0.86389 2.04295,-1.61954 1.93609,-1.89802 -0.0977,-0.25447 -0.3681,-1.43125 -0.601,-2.61507 -0.5268,-2.67765 -0.36667,-2.70574 -3.62901,0.63677 -15.43691,15.8163 -11.56746,33.76332 7.30434,33.87849 l 3.47783,0.0212 -0.21387,-0.85211 z m 9.95225,-3.86053 c 5.48182,-5.25299 4.10605,-15.74374 -2.36401,-18.02651 -2.55265,-0.90062 -6.10136,-0.74967 -5.86716,0.24959 0.19233,0.82064 2.65321,12.31332 3.56921,16.66875 0.83973,3.99279 0.70914,3.78955 2.01373,3.13386 0.618,-0.31061 1.8097,-1.22218 2.64823,-2.02569 z m -13.30242,-48.11582 c 6.14353,-5.45568 9.12724,-14.00529 6.62972,-18.99694 -1.12479,-2.24804 -1.34847,-2.25413 -3.50705,-0.0955 -4.3613,4.3613 -6.03156,11.0952 -4.69188,18.9161 0.2374,1.3859 0.21059,1.38289 1.56921,0.17638 z"
       id="path855-2"
       inkscape:connector-curvature="0"
       sodipodi:nodetypes="cccscsccsscscssccccscsscccsscscccscccccccsccccccc"
       inkscape:export-xdpi="10.876408"
       inkscape:export-ydpi="10.876408"
       inkscape:export-filename="D:\Downloads\idle_square.png" />
    <path
       style="fill:#ff0000;stroke-width:0.35277775"
       d="m 152.58122,184.95398 c -0.86734,-0.17798 -2.40652,-0.89491 -3.42041,-1.59321 -10.95113,-7.54232 -0.88921,-21.89378 12.02803,-17.15572 1.15045,0.42198 2.13343,0.72555 2.1844,0.67457 0.15118,-0.15118 -2.99264,-22.57467 -3.29755,-23.51995 -0.30674,-0.95096 0.82687,-0.61863 -15.75114,-4.6176 -4.0503,-0.97703 -7.40999,-1.73009 -7.46593,-1.67349 -0.0559,0.0566 0.42237,5.34167 1.06295,11.7446 2.41714,24.16072 2.48512,22.70206 -1.213,26.027 -9.04982,8.13651 -21.52029,5.4051 -21.53039,-4.71581 -0.008,-7.59083 7.61288,-11.82946 16.39245,-9.11774 1.30407,0.40278 2.41562,0.68154 2.47013,0.61945 0.0545,-0.0621 -0.26316,-4.31978 -0.70593,-9.46152 -1.93492,-22.46947 -2.6951,-32.16162 -2.53512,-32.32161 0.0944,-0.0943 3.16612,0.55406 6.82614,1.4409 3.66003,0.88685 8.63895,2.09132 11.06431,2.67662 2.42534,0.58529 6.54661,1.58111 9.15838,2.21292 l 4.74866,1.14876 1.14893,7.57051 c 0.63191,4.16378 1.62701,10.58676 2.21135,14.27329 3.57312,22.54257 3.90755,25.58771 3.05526,27.81941 -1.9049,4.98789 -10.54289,9.17697 -16.43152,7.96862 z m 6.49798,-49.63456 c -0.13064,-0.92164 -0.41818,-1.85792 -0.63898,-2.08065 -0.43955,-0.44338 -22.00736,-5.97618 -22.27048,-5.71306 -0.0893,0.0893 -0.0684,0.95489 0.0463,1.92358 l 0.20859,1.76125 11.15986,2.85907 c 6.13793,1.57248 11.28865,2.874 11.44606,2.89228 0.15741,0.0183 0.17931,-0.72085 0.0487,-1.64247 z"
       id="path855-7-8"
       inkscape:connector-curvature="0"
       sodipodi:nodetypes="cccscscsccccscssscsccccccccsccc"
       inkscape:export-xdpi="10.876408"
       inkscape:export-ydpi="10.876408"
       inkscape:export-filename="D:\Downloads\idle_square.png" />
  </g>
</svg>
