<?xml version="1.0" encoding="UTF-8" standalone="no"?>
<!-- Created with Inkscape (http://www.inkscape.org/) -->

<svg
   xmlns:dc="http://purl.org/dc/elements/1.1/"
   xmlns:cc="http://creativecommons.org/ns#"
   xmlns:rdf="http://www.w3.org/1999/02/22-rdf-syntax-ns#"
   xmlns:svg="http://www.w3.org/2000/svg"
   xmlns="http://www.w3.org/2000/svg"
   xmlns:sodipodi="http://sodipodi.sourceforge.net/DTD/sodipodi-0.dtd"
   xmlns:inkscape="http://www.inkscape.org/namespaces/inkscape"
   width="210mm"
   height="297mm"
   viewBox="0 0 210 297"
   version="1.1"
   id="svg8"
   inkscape:export-filename="D:\Downloads\idle.png"
   inkscape:export-xdpi="10.963458"
   inkscape:export-ydpi="10.963458"
   inkscape:version="0.92.5 (2060ec1f9f, 2020-04-08)"
   sodipodi:docname="idle.svg">
  <defs
     id="defs2" />
  <sodipodi:namedview
     id="base"
     pagecolor="#ffffff"
     bordercolor="#666666"
     borderopacity="1.0"
     inkscape:pageopacity="0.0"
     inkscape:pageshadow="2"
     inkscape:zoom="0.24748737"
     inkscape:cx="228.75923"
     inkscape:cy="999.20171"
     inkscape:document-units="mm"
     inkscape:current-layer="layer1"
     showgrid="false"
     inkscape:window-width="1509"
     inkscape:window-height="890"
     inkscape:window-x="794"
     inkscape:window-y="25"
     inkscape:window-maximized="0" />
  <metadata
     id="metadata5">
    <rdf:RDF>
      <cc:Work
         rdf:about="">
        <dc:format>image/svg+xml</dc:format>
        <dc:type
           rdf:resource="http://purl.org/dc/dcmitype/StillImage" />
        <dc:title></dc:title>
      </cc:Work>
    </rdf:RDF>
  </metadata>
  <g
     inkscape:label="Layer 1"
     inkscape:groupmode="layer"
     id="layer1">
    <path
       style="fill:#ff0000;stroke-width:0.35277775"
       d="m 49.445833,176.49165 c -8.7828,-3.65506 -11.02941,-15.86826 -3.61478,-19.65093 7.19206,-3.66911 14.35928,3.57298 10.48755,10.59711 -1.26612,2.297 -1.25533,2.1485 -0.15594,2.1485 2.43596,0 5.08622,-2.45207 5.82438,-5.38882 0.4621,-1.83843 0.33584,-2.79564 -1.29002,-9.78063 l -0.8622,-3.70416 -4.84172,-0.0199 c -11.96023,-0.0492 -20.70461,-6.237 -23.73251,-16.79393 -3.19566,-11.14186 0.72435,-21.41898 12.81354,-33.59332 l 4.86459,-4.898861 -0.52178,-1.80392 c -3.47051,-11.99837 1.7302,-26.531499 11.1851,-31.256165 3.30901,-1.653535 4.52951,-0.915847 6.9962,4.228635 4.53284,9.453604 2.23666,18.06819 -8.31173,31.18311 l -2.59626,3.227961 0.93473,4.16061 0.93473,4.16062 3.60104,0.1359 c 20.54475,0.77537 24.92237,27.53866 6.29045,38.45769 l -1.50116,0.87974 0.89445,3.43538 c 1.47141,5.65133 1.36055,12.64037 -0.26333,16.60138 -2.8052,6.84252 -10.66989,10.36472 -17.13533,7.67404 z m 8.85845,-34.21578 c -0.11763,-0.46867 -1.02444,-4.95336 -2.01513,-9.96598 -1.93879,-9.8097 -2.04121,-10.10747 -3.1358,-9.11688 -2.74507,2.48425 -4.29192,6.58498 -3.43387,9.10322 0.76991,2.25955 0.26255,2.33817 -1.76916,0.27416 -6.08575,-6.1825 -5.19438,-14.52614 2.07958,-19.46579 1.27214,-0.8639 2.04295,-1.61955 1.93609,-1.89803 -0.0977,-0.25447 -0.3681,-1.43125 -0.601,-2.61507 -0.5268,-2.67764 -0.36667,-2.70574 -3.62901,0.63678 -15.43691,15.81629 -11.56746,33.76331 7.30434,33.87849 l 3.47783,0.0212 -0.21387,-0.85212 z m 9.95225,-3.86054 c 5.48182,-5.25299 4.10605,-15.74373 -2.36401,-18.0265 -2.55265,-0.90062 -6.10136,-0.74967 -5.86716,0.24958 0.19233,0.82064 2.65321,12.31332 3.56921,16.66875 0.83973,3.99279 0.70914,3.78956 2.01373,3.13386 0.618,-0.31061 1.8097,-1.22217 2.64823,-2.02569 z M 54.954113,90.299519 c 6.14353,-5.45568 9.12724,-14.00529 6.62972,-18.996946 -1.12479,-2.248036 -1.34847,-2.25413 -3.50705,-0.09554 -4.3613,4.361303 -6.03156,11.095206 -4.69188,18.916106 0.2374,1.3859 0.21059,1.38289 1.56921,0.17638 z"
       id="path855"
       inkscape:connector-curvature="0"
       sodipodi:nodetypes="cccscsccsscscssccccscsscccsscscccscccccccsccccccc"
       inkscape:export-xdpi="8.3322287"
       inkscape:export-ydpi="8.3322287" />
    <path
       style="fill:#ff0000;stroke-width:0.35277775"
       d="m 130.13876,159.37823 c -0.86734,-0.17798 -2.40652,-0.89492 -3.42041,-1.59321 -10.95113,-7.54233 -0.88921,-21.89379 12.02803,-17.15573 1.15045,0.42199 2.13343,0.72555 2.1844,0.67458 0.15118,-0.15118 -2.99264,-22.57467 -3.29755,-23.51995 -0.30674,-0.95097 0.82687,-0.61864 -15.75114,-4.61761 -4.0503,-0.97703 -7.40999,-1.73009 -7.46593,-1.67349 -0.0559,0.0566 0.42237,5.34168 1.06295,11.7446 2.41714,24.16073 2.48512,22.70206 -1.213,26.027 -9.04982,8.13651 -21.520287,5.4051 -21.530387,-4.7158 -0.008,-7.59084 7.612877,-11.82946 16.392447,-9.11774 1.30407,0.40278 2.41562,0.68153 2.47013,0.61944 0.0545,-0.0621 -0.26316,-4.31978 -0.70593,-9.46152 -1.93492,-22.46947 -2.6951,-32.161615 -2.53512,-32.321605 0.0944,-0.0943 3.16612,0.554057 6.82614,1.440904 3.66003,0.886844 8.63895,2.091318 11.06431,2.676615 2.42534,0.58529 6.54661,1.58111 9.15838,2.212926 l 4.74866,1.14876 1.14893,7.57051 c 0.63191,4.16377 1.62701,10.58675 2.21135,14.27328 3.57312,22.54258 3.90755,25.58771 3.05526,27.81941 -1.9049,4.9879 -10.54289,9.17698 -16.43152,7.96863 z m 6.49798,-49.63457 c -0.13064,-0.92163 -0.41818,-1.85792 -0.63898,-2.08064 -0.43955,-0.44339 -22.00736,-5.97619 -22.27048,-5.71307 -0.0893,0.0893 -0.0684,0.95489 0.0463,1.92358 l 0.20859,1.76126 11.15986,2.85906 c 6.13793,1.57248 11.28865,2.874 11.44606,2.89228 0.15741,0.0183 0.17931,-0.72084 0.0487,-1.64247 z"
       id="path855-7"
       inkscape:connector-curvature="0"
       sodipodi:nodetypes="cccscscsccccscssscsccccccccsccc"
       inkscape:export-xdpi="8.3322287"
       inkscape:export-ydpi="8.3322287" />
  </g>
</svg>
