<?xml version="1.0" encoding="UTF-8" standalone="no"?>
<!-- Created with Inkscape (http://www.inkscape.org/) -->

<svg
   xmlns:dc="http://purl.org/dc/elements/1.1/"
   xmlns:cc="http://creativecommons.org/ns#"
   xmlns:rdf="http://www.w3.org/1999/02/22-rdf-syntax-ns#"
   xmlns:svg="http://www.w3.org/2000/svg"
   xmlns="http://www.w3.org/2000/svg"
   xmlns:sodipodi="http://sodipodi.sourceforge.net/DTD/sodipodi-0.dtd"
   xmlns:inkscape="http://www.inkscape.org/namespaces/inkscape"
   width="210mm"
   height="297mm"
   viewBox="0 0 210 297"
   version="1.1"
   id="svg8"
   inkscape:version="0.92.5 (2060ec1f9f, 2020-04-08)"
   sodipodi:docname="logs.svg">
  <defs
     id="defs2">
    <marker
       inkscape:stockid="Arrow1Lend"
       orient="auto"
       refY="0.0"
       refX="0.0"
       id="Arrow1Lend"
       style="overflow:visible;"
       inkscape:isstock="true">
      <path
         id="path4571"
         d="M 0.0,0.0 L 5.0,-5.0 L -12.5,0.0 L 5.0,5.0 L 0.0,0.0 z "
         style="fill-rule:evenodd;stroke:#000000;stroke-width:1.0pt;"
         transform="scale(0.8) rotate(180) translate(12.5,0)" />
    </marker>
    <marker
       inkscape:stockid="Arrow1Lstart"
       orient="auto"
       refY="0.0"
       refX="0.0"
       id="marker4906"
       style="overflow:visible"
       inkscape:isstock="true">
      <path
         id="path4904"
         d="M 0.0,0.0 L 5.0,-5.0 L -12.5,0.0 L 5.0,5.0 L 0.0,0.0 z "
         style="fill-rule:evenodd;stroke:#000000;stroke-width:1.0pt"
         transform="scale(0.8) translate(12.5,0)" />
    </marker>
    <marker
       inkscape:stockid="Arrow1Lstart"
       orient="auto"
       refY="0.0"
       refX="0.0"
       id="marker4878"
       style="overflow:visible"
       inkscape:isstock="true">
      <path
         id="path4876"
         d="M 0.0,0.0 L 5.0,-5.0 L -12.5,0.0 L 5.0,5.0 L 0.0,0.0 z "
         style="fill-rule:evenodd;stroke:#000000;stroke-width:1.0pt"
         transform="scale(0.8) translate(12.5,0)" />
    </marker>
    <marker
       inkscape:stockid="Arrow1Lstart"
       orient="auto"
       refY="0.0"
       refX="0.0"
       id="marker4856"
       style="overflow:visible"
       inkscape:isstock="true">
      <path
         id="path4854"
         d="M 0.0,0.0 L 5.0,-5.0 L -12.5,0.0 L 5.0,5.0 L 0.0,0.0 z "
         style="fill-rule:evenodd;stroke:#000000;stroke-width:1.0pt"
         transform="scale(0.8) translate(12.5,0)" />
    </marker>
    <marker
       inkscape:stockid="Arrow1Lstart"
       orient="auto"
       refY="0.0"
       refX="0.0"
       id="marker4840"
       style="overflow:visible"
       inkscape:isstock="true">
      <path
         id="path4838"
         d="M 0.0,0.0 L 5.0,-5.0 L -12.5,0.0 L 5.0,5.0 L 0.0,0.0 z "
         style="fill-rule:evenodd;stroke:#000000;stroke-width:1.0pt"
         transform="scale(0.8) translate(12.5,0)" />
    </marker>
    <marker
       inkscape:stockid="Arrow1Lstart"
       orient="auto"
       refY="0.0"
       refX="0.0"
       id="Arrow1Lstart"
       style="overflow:visible"
       inkscape:isstock="true">
      <path
         id="path4568"
         d="M 0.0,0.0 L 5.0,-5.0 L -12.5,0.0 L 5.0,5.0 L 0.0,0.0 z "
         style="fill-rule:evenodd;stroke:#000000;stroke-width:1.0pt"
         transform="scale(0.8) translate(12.5,0)" />
    </marker>
  </defs>
  <sodipodi:namedview
     id="base"
     pagecolor="#ffffff"
     bordercolor="#666666"
     borderopacity="1.0"
     inkscape:pageopacity="0.0"
     inkscape:pageshadow="2"
     inkscape:zoom="0.24748737"
     inkscape:cx="1148.5344"
     inkscape:cy="172.02403"
     inkscape:document-units="mm"
     inkscape:current-layer="layer1"
     showgrid="false"
     inkscape:window-width="1790"
     inkscape:window-height="973"
     inkscape:window-x="304"
     inkscape:window-y="0"
     inkscape:window-maximized="0" />
  <metadata
     id="metadata5">
    <rdf:RDF>
      <cc:Work
         rdf:about="">
        <dc:format>image/svg+xml</dc:format>
        <dc:type
           rdf:resource="http://purl.org/dc/dcmitype/StillImage" />
        <dc:title></dc:title>
      </cc:Work>
    </rdf:RDF>
  </metadata>
  <g
     inkscape:label="Layer 1"
     inkscape:groupmode="layer"
     id="layer1">
    <path
       style="fill:#fa0000;stroke-width:0.26458332;fill-opacity:1"
       d="m 29.278006,153.65742 c -1.29863,-0.40932 -3.51336,-2.70267 -3.91157,-4.05041 -0.45524,-1.54079 -0.46958,-125.091609 -0.0147,-126.609873 0.39761,-1.32711 1.84081,-3.000578 3.22709,-3.741985 l 1.09605,-0.586186 33.73438,-0.06985 c 31.80559,-0.06586 33.7835,-0.04317 34.59356,0.396875 1.15013,0.624784 34.434484,34.393427 34.617014,35.120707 0.0787,0.3136 0.16549,6.57506 0.19283,13.91435 l 0.0497,13.34416 6.74688,0.13229 c 6.39202,0.12533 6.80659,0.16418 7.88227,0.73855 1.48235,0.79152 3.04497,2.42128 3.80926,3.97293 l 0.61159,1.24164 v 19.579172 19.57917 l -0.71297,1.35138 c -0.39213,0.74326 -1.31556,1.89317 -2.05205,2.55534 -2.11725,1.90359 -2.8231,2.0464 -10.1144,2.0464 h -6.30287 l -0.006,8.26823 c -0.005,7.44732 -0.054,8.37432 -0.4912,9.3368 -0.61147,1.34614 -2.59129,3.10804 -3.9498,3.51506 -1.43767,0.43075 -97.635564,0.39698 -99.005274,-0.0348 z m 95.188564,-14.66557 0.0708,-6.41253 -36.980224,-0.0698 -36.98022,-0.0698 -1.33971,-0.70705 c -1.60107,-0.84499 -3.1402,-2.47836 -3.91562,-4.15536 -0.56128,-1.21388 -0.5655,-1.36721 -0.5655,-20.53759 V 87.725138 l 0.62377,-1.37948 c 0.35119,-0.77667 1.19186,-1.91086 1.92382,-2.59552 2.46623,-2.30687 -1.35055,-2.09385 40.18262,-2.24271 l 36.909374,-0.13229 0.0691,-10.76507 0.0691,-10.76508 -12.23993,-0.0959 c -13.497314,-0.10578 -13.407814,-0.0957 -16.340984,-1.84904 -0.91605,-0.5476 -1.77288,-1.34462 -2.31263,-2.1512 -1.63042,-2.43642 -1.65612,-2.69028 -1.65612,-16.359323 V 27.00103 l -29.3026,0.0673 -29.30261,0.0673 -0.0678,58.869788 c -0.0373,32.378382 -0.0111,59.018952 0.0581,59.201272 0.10038,0.26417 9.35503,0.3179 45.57616,0.26458 l 45.450204,-0.0669 z M 97.668186,120.52989 c 4.971644,-1.05311 8.386144,-4.41125 9.412134,-9.25677 0.44613,-2.10692 0.4483,-6.5208 0.004,-8.33437 -0.86424,-3.528602 -2.89231,-6.245502 -5.78036,-7.743672 -2.479854,-1.28641 -4.189634,-1.64828 -7.732304,-1.63652 -4.67063,0.0155 -7.55939,1.07854 -10.03014,3.69098 -2.43023,2.56961 -3.45304,5.545312 -3.4597,10.065392 -0.006,4.32416 1.02569,7.20609 3.52817,9.85209 1.47517,1.55977 2.95097,2.42817 5.21047,3.06597 2.72508,0.76923 6.08545,0.88199 8.84763,0.2969 z m -5.4931,-6.06468 c -2.61805,-0.69578 -3.66649,-2.4761 -3.83947,-6.51969 -0.18501,-4.32481 0.63787,-6.52157 2.86936,-7.65999 1.13976,-0.581462 3.44719,-0.700362 4.66466,-0.24037 0.90813,0.34312 2.11871,1.4569 2.6142,2.40517 1.11446,2.13287 0.99379,7.64895 -0.21527,9.84075 -1.05692,1.91599 -3.62159,2.83105 -6.09348,2.17413 z m 37.776884,5.81109 c 1.86684,-0.4847 4.83846,-1.88968 6.42015,-3.03545 l 1.12048,-0.81167 V 110.87459 105.32 h -6.35 -6.35 v 2.77812 2.77813 h 2.64583 2.64584 v 1.28678 1.28679 l -1.65365,0.75032 c -2.20586,1.00088 -5.04681,1.07336 -6.74658,0.17213 -2.25155,-1.1938 -3.09096,-3.46011 -2.9379,-7.93191 0.12357,-3.61039 0.75129,-5.05224 2.73291,-6.27738 2.43206,-1.503632 5.88887,-0.903542 7.09686,1.232 0.43643,0.77154 0.71488,1.00052 1.11148,0.91404 0.29104,-0.0635 2.04865,-0.38522 3.90579,-0.71501 3.78181,-0.67156 3.62059,-0.49609 2.55075,-2.776302 -1.87291,-3.99182 -6.15499,-5.74146 -12.98052,-5.30378 -4.28371,0.27469 -7.01324,1.39667 -9.27172,3.81116 -2.4258,2.59338 -3.47814,5.618292 -3.4717,9.979282 0.004,2.45964 0.11466,3.23381 0.71685,4.99835 1.61253,4.72506 4.38711,7.2236 9.15784,8.24675 2.14437,0.45989 7.40725,0.31101 9.65729,-0.27317 z m -51.461464,-3.18234 v -3.3073 h -6.35 -6.35 v -9.92187 -9.921872 h -4.10104 -4.10104 v 13.229162 13.22917 h 10.45104 10.45104 z M 119.28417,48.500735 c -2.04451,-2.14643 -7.35933,-7.53401 -11.8107,-11.972395 l -8.093404,-8.069791 0.0724,11.025286 0.0724,11.025283 0.661464,0.71146 c 0.3638,0.39131 0.89958,0.80996 1.19062,0.93034 0.29104,0.12039 5.27562,0.22643 11.07684,0.23565 l 10.54767,0.0168 z"
       id="path4529"
       inkscape:connector-curvature="0"
       inkscape:export-xdpi="7.4061441"
       inkscape:export-ydpi="7.4061441" />
    <path
       style="fill:#dd0000;fill-opacity:1;stroke-width:0.26458332"
       d="m 32.755929,302.6333 c -1.29863,-0.40932 -3.51336,-2.70267 -3.91157,-4.05041 -0.45524,-1.54079 -0.46958,-125.0916 -0.0147,-126.60987 0.39761,-1.32711 1.84081,-3.00058 3.22709,-3.74198 l 1.09605,-0.58619 33.73438,-0.0699 c 31.80559,-0.0659 33.783501,-0.0432 34.593561,0.39688 1.15013,0.62478 34.43448,34.39342 34.61701,35.1207 0.0787,0.3136 0.16549,6.57506 0.19283,13.91435 l 0.0497,13.34416 6.74688,0.13229 c 6.39202,0.12533 6.80659,0.16418 7.88227,0.73855 1.48235,0.79152 3.04497,2.42128 3.80926,3.97293 l 0.61159,1.24164 v 19.57917 19.57917 l -0.71297,1.35138 c -0.39213,0.74326 -1.31556,1.89317 -2.05205,2.55534 -2.11725,1.90359 -2.8231,2.0464 -10.1144,2.0464 h -6.30287 l -0.006,8.26823 c -0.005,7.44732 -0.054,8.37432 -0.49121,9.3368 -0.61146,1.34614 -2.59129,3.10804 -3.94979,3.51506 -1.43768,0.43075 -97.635571,0.39698 -99.005281,-0.0348 z m 95.188561,-14.66557 0.0708,-6.41253 -36.980221,-0.0698 -36.98022,-0.0698 -1.33971,-0.70705 c -1.60107,-0.84499 -3.1402,-2.47836 -3.91562,-4.15536 -0.56128,-1.21388 -0.5655,-1.36721 -0.5655,-20.53759 v -19.31458 l 0.62377,-1.37948 c 0.35119,-0.77667 1.19186,-1.91086 1.92382,-2.59552 2.46623,-2.30687 -1.35055,-2.09385 40.18262,-2.24271 l 36.909371,-0.13229 0.0691,-10.76507 0.0691,-10.76508 -12.23993,-0.0959 c -13.49731,-0.10578 -13.40781,-0.0957 -16.340981,-1.84903 -0.91605,-0.5476 -1.77288,-1.34463 -2.31263,-2.1512 -1.63042,-2.43643 -1.65612,-2.69029 -1.65612,-16.35933 v -12.3885 l -29.3026,0.0673 -29.30261,0.0673 -0.0678,58.86979 c -0.0373,32.37838 -0.0111,59.01895 0.0581,59.20127 0.10038,0.26417 9.35503,0.3179 45.57616,0.26458 l 45.450201,-0.0669 z m -26.79838,-18.46196 c 4.97164,-1.05311 8.38614,-4.41125 9.41213,-9.25677 0.44613,-2.10692 0.4483,-6.5208 0.004,-8.33437 -0.86423,-3.5286 -2.8923,-6.2455 -5.78036,-7.74367 -2.47985,-1.28641 -4.18963,-1.64828 -7.732301,-1.63652 -4.67062,0.0155 -7.55938,1.07854 -10.03014,3.69098 -2.43022,2.56961 -3.45304,5.54531 -3.45969,10.06539 -0.006,4.32416 1.02568,7.20609 3.52817,9.85209 1.47516,1.55977 2.95097,2.42817 5.21046,3.06597 2.72509,0.76923 6.08546,0.88199 8.847631,0.2969 z m -5.493101,-6.06468 c -2.61805,-0.69578 -3.66649,-2.4761 -3.83947,-6.51969 -0.18501,-4.32481 0.63787,-6.52157 2.86936,-7.65999 1.13976,-0.58146 3.44719,-0.70036 4.66466,-0.24037 0.908131,0.34312 2.118711,1.4569 2.614201,2.40517 1.11446,2.13287 0.99379,7.64895 -0.21527,9.84075 -1.05692,1.91599 -3.621591,2.83105 -6.093481,2.17413 z m 37.776881,5.81109 c 1.86684,-0.4847 4.83846,-1.88968 6.42015,-3.03545 l 1.12048,-0.81167 v -5.55459 -5.55459 h -6.35 -6.35 v 2.77812 2.77813 h 2.64583 2.64584 v 1.28678 1.28679 l -1.65365,0.75032 c -2.20586,1.00088 -5.04681,1.07336 -6.74658,0.17213 -2.25155,-1.1938 -3.09096,-3.46011 -2.9379,-7.93191 0.12357,-3.61039 0.75129,-5.05224 2.73291,-6.27738 2.43206,-1.50363 5.88887,-0.90354 7.09686,1.232 0.43643,0.77154 0.71488,1.00052 1.11148,0.91404 0.29104,-0.0635 2.04865,-0.38522 3.90579,-0.71501 3.78181,-0.67156 3.62059,-0.49609 2.55075,-2.7763 -1.87291,-3.99182 -6.15499,-5.74146 -12.98052,-5.30378 -4.28371,0.27469 -7.01324,1.39667 -9.27172,3.81116 -2.4258,2.59338 -3.47814,5.61829 -3.4717,9.97928 0.004,2.45964 0.11466,3.23381 0.71685,4.99835 1.61253,4.72506 4.38711,7.2236 9.15784,8.24675 2.14437,0.45989 7.40725,0.31101 9.65729,-0.27317 z m -51.461461,-3.18234 v -3.3073 h -6.35 -6.35 v -9.92187 -9.92187 h -4.10104 -4.10104 v 13.22916 13.22917 h 10.45104 10.45104 z m 40.793661,-68.59322 c -2.04451,-2.14643 -7.35933,-7.53401 -11.8107,-11.9724 l -8.0934,-8.06979 0.0724,11.02529 0.0724,11.02528 0.66146,0.71146 c 0.3638,0.39131 0.89959,0.80996 1.19062,0.93034 0.29105,0.12039 5.27562,0.22643 11.07684,0.23565 l 10.54767,0.0168 z"
       id="path4529-9"
       inkscape:connector-curvature="0"
       inkscape:export-xdpi="5.6046495"
       inkscape:export-ydpi="5.6046495" />
    <path
       style="fill:#c60000;fill-opacity:1;stroke-width:0.26458332"
       d="m 35.960933,449.89863 c -1.29863,-0.40932 -3.51336,-2.70267 -3.91157,-4.05041 -0.45524,-1.54079 -0.46958,-125.0916 -0.0147,-126.60987 0.39761,-1.32711 1.84081,-3.00058 3.22709,-3.74198 l 1.09605,-0.58619 33.73438,-0.0699 c 31.805587,-0.0659 33.783497,-0.0432 34.593557,0.39688 1.15013,0.62478 34.43448,34.39342 34.617,35.1207 0.0787,0.3136 0.16549,6.57506 0.19283,13.91435 l 0.0497,13.34416 6.74688,0.13229 c 6.39202,0.12533 6.8066,0.16418 7.88227,0.73855 1.48235,0.79152 3.04498,2.42128 3.80926,3.97293 l 0.61159,1.24164 v 19.57917 19.57917 l -0.71297,1.35138 c -0.39212,0.74326 -1.31556,1.89317 -2.05205,2.55534 -2.11725,1.90359 -2.8231,2.0464 -10.1144,2.0464 h -6.30287 l -0.006,8.26823 c -0.005,7.44732 -0.054,8.37432 -0.49121,9.3368 -0.61146,1.34614 -2.59129,3.10804 -3.94979,3.51506 -1.43768,0.43075 -97.635567,0.39698 -99.005277,-0.0348 z m 95.188557,-14.66557 0.0708,-6.41253 -36.980217,-0.0698 -36.98022,-0.0698 -1.33971,-0.70705 c -1.60107,-0.84499 -3.1402,-2.47836 -3.91562,-4.15536 -0.56128,-1.21388 -0.5655,-1.36721 -0.5655,-20.53759 v -19.31458 l 0.62377,-1.37948 c 0.35119,-0.77667 1.19186,-1.91086 1.92382,-2.59552 2.46623,-2.30687 -1.35055,-2.09385 40.18261,-2.24271 l 36.909377,-0.13229 0.0691,-10.76507 0.0691,-10.76508 -12.23993,-0.0959 c -13.49731,-0.10578 -13.40781,-0.0957 -16.34098,-1.84903 -0.91605,-0.5476 -1.77288,-1.34463 -2.31263,-2.1512 -1.630417,-2.43643 -1.656117,-2.69029 -1.656117,-16.35933 v -12.3885 l -29.30261,0.0673 -29.3026,0.0673 -0.0678,58.86979 c -0.0373,32.37838 -0.0111,59.01895 0.0581,59.20127 0.10038,0.26417 9.35503,0.3179 45.57615,0.26458 l 45.450207,-0.0669 z M 104.35111,416.7711 c 4.97164,-1.05311 8.38614,-4.41125 9.41213,-9.25677 0.44613,-2.10692 0.4483,-6.5208 0.004,-8.33437 -0.86423,-3.5286 -2.8923,-6.2455 -5.78036,-7.74367 -2.47985,-1.28641 -4.18963,-1.64828 -7.73231,-1.63652 -4.670607,0.0155 -7.559367,1.07854 -10.030127,3.69098 -2.43022,2.56961 -3.45304,5.54531 -3.45969,10.06539 -0.006,4.32416 1.02567,7.20609 3.52816,9.85209 1.47517,1.55977 2.95098,2.42817 5.21047,3.06597 2.72508,0.76923 6.085457,0.88199 8.847627,0.2969 z m -5.493097,-6.06468 c -2.61805,-0.69578 -3.66649,-2.4761 -3.83947,-6.51969 -0.18501,-4.32481 0.63787,-6.52157 2.86936,-7.65999 1.13976,-0.58146 3.447187,-0.70036 4.664657,-0.24037 0.90813,0.34312 2.11871,1.4569 2.6142,2.40517 1.11446,2.13287 0.99379,7.64895 -0.21527,9.84075 -1.05692,1.91599 -3.6216,2.83105 -6.093477,2.17413 z m 37.776867,5.81109 c 1.86685,-0.4847 4.83847,-1.88968 6.42015,-3.03545 l 1.12048,-0.81167 v -5.55459 -5.55459 h -6.35 -6.34999 v 2.77812 2.77813 h 2.64582 2.64584 v 1.28678 1.28679 l -1.65365,0.75032 c -2.20586,1.00088 -5.0468,1.07336 -6.74657,0.17213 -2.25155,-1.1938 -3.09096,-3.46011 -2.9379,-7.93191 0.12357,-3.61039 0.75129,-5.05224 2.73291,-6.27738 2.43206,-1.50363 5.88886,-0.90354 7.09686,1.232 0.43643,0.77154 0.71487,1.00052 1.11148,0.91404 0.29103,-0.0635 2.04864,-0.38522 3.90578,-0.71501 3.78181,-0.67156 3.6206,-0.49609 2.55076,-2.7763 -1.87292,-3.99182 -6.155,-5.74146 -12.98052,-5.30378 -4.28371,0.27469 -7.01324,1.39667 -9.27172,3.81116 -2.4258,2.59338 -3.47814,5.61829 -3.4717,9.97928 0.004,2.45964 0.11466,3.23381 0.71685,4.99835 1.61253,4.72506 4.38711,7.2236 9.15784,8.24675 2.14437,0.45989 7.40724,0.31101 9.65728,-0.27317 z m -51.461447,-3.18234 v -3.3073 h -6.35 -6.35 v -9.92187 -9.92187 h -4.10104 -4.10104 v 13.22916 13.22917 h 10.45104 10.45104 z m 40.793657,-68.59322 c -2.04451,-2.14643 -7.35933,-7.53401 -11.8107,-11.9724 l -8.0934,-8.06979 0.0724,11.02529 0.0724,11.02528 0.66145,0.71146 c 0.36381,0.39131 0.8996,0.80996 1.19063,0.93034 0.29105,0.12039 5.27562,0.22643 11.07684,0.23565 l 10.54767,0.0168 z"
       id="path4529-9-1"
       inkscape:connector-curvature="0"
       inkscape:export-xdpi="5.6046495"
       inkscape:export-ydpi="5.6046495" />
    <path
       style="fill:#00aedb;fill-opacity:1;stroke-width:0.26458332"
       d="m 202.73711,156.97118 c -1.29863,-0.40933 -3.51336,-2.70268 -3.91157,-4.05042 -0.45524,-1.54079 -0.46958,-125.091606 -0.0147,-126.60987 0.39761,-1.32711 1.84081,-3.000578 3.22709,-3.741985 l 1.09605,-0.586186 33.73438,-0.06985 c 31.80559,-0.06586 33.7835,-0.04317 34.59356,0.396875 1.15013,0.624784 34.43449,34.393426 34.61702,35.120708 0.0787,0.3136 0.16549,6.575059 0.19283,13.91435 l 0.0497,13.344157 6.74688,0.13229 c 6.39202,0.12533 6.80659,0.16418 7.88227,0.73855 1.48235,0.79152 3.04497,2.42128 3.80926,3.97293 l 0.61159,1.24164 v 19.579181 19.57916 l -0.71297,1.35138 c -0.39213,0.74326 -1.31556,1.89318 -2.05205,2.55535 -2.11725,1.90359 -2.8231,2.04639 -10.1144,2.04639 h -6.30287 l -0.006,8.26823 c -0.005,7.44733 -0.054,8.37432 -0.4912,9.3368 -0.61147,1.34614 -2.59129,3.10804 -3.9498,3.51506 -1.43767,0.43076 -97.63557,0.39698 -99.00528,-0.0348 z m 95.18856,-14.66558 0.0708,-6.41253 -36.98022,-0.0698 -36.98022,-0.0698 -1.33971,-0.70705 c -1.60107,-0.84499 -3.1402,-2.47836 -3.91562,-4.15536 -0.56128,-1.21388 -0.5655,-1.36721 -0.5655,-20.53758 V 91.038889 l 0.62377,-1.37948 c 0.35119,-0.77667 1.19186,-1.91086 1.92382,-2.59552 2.46623,-2.30687 -1.35055,-2.09385 40.18262,-2.24271 l 36.90937,-0.13229 0.0691,-10.76507 0.0691,-10.765077 -12.23993,-0.0959 c -13.49731,-0.105781 -13.40781,-0.0957 -16.34098,-1.849038 -0.91605,-0.5476 -1.77288,-1.344621 -2.31263,-2.1512 -1.63042,-2.436421 -1.65612,-2.690281 -1.65612,-16.359325 V 30.314783 l -29.3026,0.0673 -29.30261,0.0673 -0.0678,58.869786 c -0.0373,32.378391 -0.0111,59.018951 0.0581,59.201271 0.10038,0.26418 9.35503,0.3179 45.57616,0.26459 l 45.4502,-0.0669 z m -26.79838,-18.46196 c 4.97164,-1.05311 8.38614,-4.41124 9.41213,-9.25677 0.44613,-2.10691 0.4483,-6.52079 0.004,-8.33437 -0.86424,-3.5286 -2.89231,-6.2455 -5.78036,-7.743671 -2.47985,-1.28641 -4.18963,-1.64828 -7.7323,-1.63652 -4.67063,0.0155 -7.55939,1.07854 -10.03014,3.690981 -2.43023,2.56961 -3.45304,5.54532 -3.4597,10.0654 -0.006,4.32416 1.02569,7.20609 3.52817,9.85209 1.47517,1.55977 2.95097,2.42816 5.21047,3.06596 2.72508,0.76924 6.08545,0.882 8.84763,0.2969 z m -5.4931,-6.06467 c -2.61805,-0.69578 -3.66649,-2.4761 -3.83947,-6.51969 -0.18501,-4.32481 0.63787,-6.52158 2.86936,-7.66 1.13976,-0.58146 3.44719,-0.70036 4.66466,-0.24036 0.90813,0.34312 2.11871,1.45689 2.6142,2.40517 1.11446,2.13287 0.99379,7.64894 -0.21527,9.84075 -1.05692,1.91599 -3.62159,2.83104 -6.09348,2.17413 z m 37.77689,5.81108 c 1.86684,-0.4847 4.83846,-1.88968 6.42015,-3.03545 l 1.12048,-0.81167 v -5.55458 -5.5546 h -6.35 -6.35001 v 2.77812 2.77813 h 2.64584 2.64584 v 1.28678 1.2868 l -1.65365,0.75032 c -2.20586,1.00088 -5.04682,1.07336 -6.74659,0.17213 -2.25155,-1.1938 -3.09096,-3.46011 -2.9379,-7.93192 0.12357,-3.61038 0.75129,-5.05224 2.73291,-6.27738 2.43206,-1.50363 5.88888,-0.90354 7.09687,1.23201 0.43643,0.77154 0.71488,1.00051 1.11148,0.91404 0.29104,-0.0635 2.04865,-0.38522 3.90579,-0.71501 3.78181,-0.67156 3.62059,-0.4961 2.55075,-2.77631 -1.87291,-3.991821 -6.15499,-5.741461 -12.98053,-5.303781 -4.28371,0.27469 -7.01324,1.39667 -9.27172,3.811161 -2.4258,2.59338 -3.47814,5.61829 -3.4717,9.97928 0.004,2.45965 0.11466,3.23382 0.71685,4.99836 1.61253,4.72506 4.38711,7.22359 9.15784,8.24674 2.14437,0.45989 7.40726,0.31102 9.6573,-0.27317 z m -51.46147,-3.18233 v -3.3073 h -6.35 -6.35 v -9.92187 -9.921881 h -4.10104 -4.10104 V 110.48584 123.715 h 10.45104 10.45104 z m 40.79366,-68.593232 c -2.04451,-2.14643 -7.35933,-7.53401 -11.8107,-11.972395 l -8.0934,-8.069791 0.0724,11.025286 0.0724,11.025283 0.66147,0.711459 c 0.3638,0.391311 0.89957,0.809961 1.19062,0.930341 0.29103,0.120391 5.27562,0.226431 11.07684,0.235652 l 10.54767,0.0168 z"
       id="path4529-3"
       inkscape:connector-curvature="0"
       inkscape:export-xdpi="7.4061441"
       inkscape:export-ydpi="7.4061441"
       inkscape:export-filename="D:\Downloads\log_icon.png" />
  </g>
</svg>
