<?xml version="1.0" encoding="UTF-8" standalone="no"?>
<!-- Created with Inkscape (http://www.inkscape.org/) -->

<svg
   xmlns:dc="http://purl.org/dc/elements/1.1/"
   xmlns:cc="http://creativecommons.org/ns#"
   xmlns:rdf="http://www.w3.org/1999/02/22-rdf-syntax-ns#"
   xmlns:svg="http://www.w3.org/2000/svg"
   xmlns="http://www.w3.org/2000/svg"
   xmlns:sodipodi="http://sodipodi.sourceforge.net/DTD/sodipodi-0.dtd"
   xmlns:inkscape="http://www.inkscape.org/namespaces/inkscape"
   width="210mm"
   height="297mm"
   viewBox="0 0 210 297"
   version="1.1"
   id="svg8"
   inkscape:export-filename="D:\Downloads\idle.png"
   inkscape:export-xdpi="10.963458"
   inkscape:export-ydpi="10.963458"
   inkscape:version="0.92.5 (2060ec1f9f, 2020-04-08)"
   sodipodi:docname="playlist.svg">
  <defs
     id="defs2" />
  <sodipodi:namedview
     id="base"
     pagecolor="#ffffff"
     bordercolor="#666666"
     borderopacity="1.0"
     inkscape:pageopacity="0.0"
     inkscape:pageshadow="2"
     inkscape:zoom="0.49497475"
     inkscape:cx="540.98295"
     inkscape:cy="636.07818"
     inkscape:document-units="mm"
     inkscape:current-layer="layer1"
     showgrid="false"
     inkscape:window-width="1509"
     inkscape:window-height="890"
     inkscape:window-x="128"
     inkscape:window-y="49"
     inkscape:window-maximized="0" />
  <metadata
     id="metadata5">
    <rdf:RDF>
      <cc:Work
         rdf:about="">
        <dc:format>image/svg+xml</dc:format>
        <dc:type
           rdf:resource="http://purl.org/dc/dcmitype/StillImage" />
        <dc:title></dc:title>
      </cc:Work>
    </rdf:RDF>
  </metadata>
  <g
     inkscape:label="Layer 1"
     inkscape:groupmode="layer"
     id="layer1">
    <path
       style="fill:#ff0000;stroke-width:0.35607606"
       d="m 74.268336,115.99191 c -0.69741,-0.43522 -1.106381,-1.01182 -1.106381,-1.55988 0,-0.54804 0.408971,-1.12464 1.106381,-1.55986 1.106398,-0.69043 1.106398,-0.69043 24.135575,-0.69043 23.029189,0 23.029189,0 24.135569,0.69043 1.46374,0.91344 1.46374,2.2063 0,3.11974 -1.10638,0.69043 -1.10638,0.69043 -24.135569,0.69043 -23.029177,0 -23.029177,0 -24.135575,-0.69043 z"
       id="path836"
       inkscape:connector-curvature="0"
       sodipodi:nodetypes="cscsccsc" />
    <path
       style="fill:#ff0000;stroke-width:0.35607606"
       d="m 74.218533,127.49663 c -0.69741,-0.43522 -1.106381,-1.01182 -1.106381,-1.55988 0,-0.54804 0.408971,-1.12464 1.106381,-1.55986 1.106398,-0.69043 1.106398,-0.69043 24.135575,-0.69043 23.029182,0 23.029182,0 24.135562,0.69043 1.46374,0.91344 1.46374,2.2063 0,3.11974 -1.10638,0.69043 -1.10638,0.69043 -24.135562,0.69043 -23.029177,0 -23.029177,0 -24.135575,-0.69043 z"
       id="path836-1"
       inkscape:connector-curvature="0"
       sodipodi:nodetypes="cscsccsc" />
    <path
       style="fill:#ff0000;stroke-width:0.35513207"
       d="m 74.218047,139.79103 c -0.693717,-0.43522 -1.100523,-1.01182 -1.100523,-1.55988 0,-0.54804 0.406806,-1.12464 1.100523,-1.55986 1.100539,-0.69043 1.100539,-0.69043 24.007776,-0.69043 22.907237,0 22.907237,0 24.007747,0.69043 1.45601,0.91344 1.45601,2.2063 0,3.11974 -1.10051,0.69043 -1.10051,0.69043 -24.007747,0.69043 -22.907237,0 -22.907237,0 -24.007776,-0.69043 z"
       id="path836-0"
       inkscape:connector-curvature="0"
       sodipodi:nodetypes="cscsccsc" />
    <path
       style="fill:#ff0000;stroke-width:0.35323656"
       d="m 74.206329,152.21906 c -0.686331,-0.43522 -1.088806,-1.01182 -1.088806,-1.55988 0,-0.54804 0.402475,-1.12464 1.088806,-1.55986 1.088822,-0.69043 1.088822,-0.69043 23.752174,-0.69043 22.663357,0 22.663357,0 23.752167,0.69043 1.44049,0.91344 1.44049,2.2063 0,3.11974 -1.08881,0.69043 -1.08881,0.69043 -23.752167,0.69043 -22.663352,0 -22.663352,0 -23.752174,-0.69043 z"
       id="path836-6"
       inkscape:connector-curvature="0"
       sodipodi:nodetypes="cscsccsc" />
    <path
       style="fill:#ff0000;stroke-width:0.35037407"
       d="m 74.188756,164.91974 c -0.675253,-0.43522 -1.071231,-1.01182 -1.071231,-1.55988 0,-0.54804 0.395978,-1.12464 1.071231,-1.55986 1.071247,-0.69043 1.071247,-0.69043 23.36878,-0.69043 22.297544,0 22.297544,0 23.368774,0.69043 1.41724,0.91344 1.41724,2.2063 0,3.11974 -1.07123,0.69043 -1.07123,0.69043 -23.368774,0.69043 -22.297533,0 -22.297533,0 -23.36878,-0.69043 z"
       id="path836-5"
       inkscape:connector-curvature="0"
       sodipodi:nodetypes="cscsccsc" />
    <path
       style="fill:#ff0000;fill-opacity:1;stroke:#ffffff;stroke-width:12;stroke-miterlimit:4;stroke-dasharray:none;stroke-opacity:1;paint-order:stroke fill markers"
       d="m 121.19791,173.12078 c -4.5329,0.33632 -7.67992,-2.48772 -6.98611,-6.26911 1.06175,-5.78673 9.5135,-10.54487 15.20483,-8.55996 l 0.82075,0.28625 -0.0109,-1.1729 c -0.006,-0.64509 -0.004,-7.84458 0.003,-15.99887 0.008,-8.15429 0.0126,-18.90157 0.0105,-23.88284 -0.002,-4.98128 0.0445,-9.14903 0.10347,-9.26169 0.059,-0.11267 0.67798,-0.19236 1.37524,-0.17811 l 1.26794,0.0267 0.19704,2.62609 c 0.35397,4.71755 1.34408,6.57312 5.91801,11.09101 3.7877,3.74131 6.03922,6.4092 7.34138,8.69905 2.54205,4.47016 2.71439,10.60808 0.42549,15.15467 -1.18899,2.36178 -1.49565,1.65492 -0.75419,-1.73832 0.80274,-3.6735 0.84698,-5.721 0.17729,-8.20632 -1.02541,-3.80534 -3.05284,-5.92792 -9.40874,-9.85014 -2.09264,-1.29136 -3.82001,-2.32945 -3.83862,-2.30686 -0.0364,0.0442 -0.0523,11.48494 -0.0405,29.13802 0.008,11.98895 -0.0814,12.71235 -1.8559,15.02009 -1.27456,1.65755 -2.09262,2.35264 -4.16373,3.53784 -1.86562,1.06761 -3.85521,1.7021 -5.78658,1.8454 z"
       id="path825-7"
       inkscape:connector-curvature="0"
       sodipodi:nodetypes="sssccccccccsccccccsccs" />
    <path
       style="fill:#ff0000;fill-opacity:1;stroke:#ff0000;stroke-width:1.6;stroke-miterlimit:4;stroke-dasharray:none;stroke-opacity:1;paint-order:stroke fill markers"
       d="m 121.19791,173.12078 c -4.5329,0.33632 -7.67992,-2.48772 -6.98611,-6.26911 1.06175,-5.78673 9.5135,-10.54487 15.20483,-8.55996 l 0.82075,0.28625 -0.0109,-1.1729 c -0.006,-0.64509 -0.004,-7.84458 0.003,-15.99887 0.008,-8.15429 0.0126,-18.90157 0.0105,-23.88284 -0.002,-4.98128 0.0445,-9.14903 0.10347,-9.26169 0.059,-0.11267 0.67798,-0.19236 1.37524,-0.17811 l 1.26794,0.0267 0.19704,2.62609 c 0.35397,4.71755 1.34408,6.57312 5.91801,11.09101 3.78771,3.74131 6.03923,6.4092 7.34139,8.69905 2.54205,4.47016 2.71438,10.60808 0.42549,15.15467 -1.189,2.36178 -1.49566,1.65492 -0.75419,-1.73832 0.80274,-3.6735 0.84697,-5.721 0.17728,-8.20632 -1.0254,-3.80534 -3.05283,-5.92792 -9.40874,-9.85014 -2.09264,-1.29136 -3.82001,-2.32945 -3.83862,-2.30686 -0.0364,0.0442 -0.0523,11.48494 -0.0405,29.13802 0.008,11.98895 -0.0814,12.71235 -1.8559,15.02009 -1.27456,1.65755 -2.09262,2.35264 -4.16373,3.53784 -1.86562,1.06761 -3.85521,1.7021 -5.78658,1.8454 z"
       id="path825"
       inkscape:connector-curvature="0"
       sodipodi:nodetypes="sssccccccccsccccccsccs" />
    <path
       style="fill:#ff0000;stroke:#ffffff;stroke-width:9.58699989;stroke-miterlimit:4;stroke-dasharray:none;stroke-opacity:0.97905758;paint-order:stroke fill markers"
       d="m 72.680833,119.6961 c 0.06155,-4.84836 0.08003,-5.31083 0.224766,-5.62813 0.200743,-0.44004 0.535276,-0.7891 0.966309,-1.00828 0.533571,-0.27131 1.399049,-0.18976 2.143638,0.20198 0.317036,0.1668 4.319996,2.483 8.895466,5.14711 7.31985,4.26205 8.38289,4.90713 8.85065,5.37079 0.68853,0.6825 0.84562,1.18551 0.61985,1.98474 -0.0658,0.23289 -0.2665,0.5066 -0.63298,0.86318 -0.47196,0.4592 -1.54471,1.09704 -8.8985,5.29095 -4.59902,2.62284 -8.62251,4.90294 -8.941092,5.06688 -0.748215,0.38503 -1.614377,0.45878 -2.145473,0.18268 -0.429047,-0.22304 -0.760424,-0.5751 -0.957198,-1.01693 -0.142056,-0.31897 -0.156124,-0.78582 -0.173544,-5.75982 -0.01044,-2.977 0.01123,-7.78981 0.04811,-10.69515 z"
       id="path952"
       inkscape:connector-curvature="0" />
  </g>
</svg>
