<?xml version="1.0" encoding="UTF-8" standalone="no"?>
<!-- Created with Inkscape (http://www.inkscape.org/) -->

<svg
   xmlns:dc="http://purl.org/dc/elements/1.1/"
   xmlns:cc="http://creativecommons.org/ns#"
   xmlns:rdf="http://www.w3.org/1999/02/22-rdf-syntax-ns#"
   xmlns:svg="http://www.w3.org/2000/svg"
   xmlns="http://www.w3.org/2000/svg"
   xmlns:sodipodi="http://sodipodi.sourceforge.net/DTD/sodipodi-0.dtd"
   xmlns:inkscape="http://www.inkscape.org/namespaces/inkscape"
   width="210mm"
   height="297mm"
   viewBox="0 0 210 297"
   version="1.1"
   id="svg8"
   inkscape:version="0.92.5 (2060ec1f9f, 2020-04-08)"
   sodipodi:docname="plus_minus.svg">
  <defs
     id="defs2" />
  <sodipodi:namedview
     id="base"
     pagecolor="#ffffff"
     bordercolor="#666666"
     borderopacity="1.0"
     inkscape:pageopacity="0.0"
     inkscape:pageshadow="2"
     inkscape:zoom="0.35"
     inkscape:cx="-322.53718"
     inkscape:cy="974.37772"
     inkscape:document-units="mm"
     inkscape:current-layer="layer1"
     showgrid="false"
     inkscape:window-width="2560"
     inkscape:window-height="1017"
     inkscape:window-x="-8"
     inkscape:window-y="-8"
     inkscape:window-maximized="1" />
  <metadata
     id="metadata5">
    <rdf:RDF>
      <cc:Work
         rdf:about="">
        <dc:format>image/svg+xml</dc:format>
        <dc:type
           rdf:resource="http://purl.org/dc/dcmitype/StillImage" />
        <dc:title></dc:title>
      </cc:Work>
    </rdf:RDF>
  </metadata>
  <g
     inkscape:label="Layer 1"
     inkscape:groupmode="layer"
     id="layer1">
    <path
       style="fill:#ff0000;stroke-width:0.26458332"
       d="m 71.800508,106.81416 c -1.07952,-0.32305 -2.23371,-1.51325 -2.54135,-2.62063 -0.14378,-0.51759 -0.26209,-3.64975 -0.26291,-6.960337 l -10e-4,-6.019268 h -6.37663 c -7.107479,0 -7.716279,-0.11987 -8.700919,-1.71305 -0.75511,-1.22179 -0.76406,-4.91677 -0.0149,-6.14546 0.96386,-1.58079 1.40509,-1.66649 8.579759,-1.66649 h 6.47866 l 0.0829,-6.54844 c 0.0758,-5.98686 0.12829,-6.62529 0.61208,-7.44456 0.80308,-1.35997 2.01392,-1.88218 4.3615,-1.88102 2.28252,0.001 3.37222,0.49339 4.23888,1.91483 0.48716,0.79899 0.52584,1.34314 0.52675,7.41075 l 9.9e-4,6.54844 h 6.73767 6.73767 l 0.91909,0.80697 c 1.1969,1.05089 1.57799,2.26476 1.41708,4.51374 -0.14451,2.0198 -0.59612,2.91057 -1.86911,3.68676 -0.77782,0.47427 -1.36988,0.51563 -7.39396,0.51654 l -6.54844,9.9e-4 -5.3e-4,6.416138 c -5.3e-4,7.440757 -0.0979,7.850827 -2.10617,8.863527 -1.247,0.62883 -3.3789,0.76895 -4.87727,0.32057 z"
       id="path839"
       inkscape:connector-curvature="0"
       inkscape:export-filename="C:\Users\jamie\plus.png"
       inkscape:export-xdpi="9.8494291"
       inkscape:export-ydpi="9.8494291" />
    <path
       style="fill:#ff0000;stroke-width:0.11273658"
       d="m 127.22276,91.066748 c -0.90294,-0.243145 -1.4786,-0.581557 -2.17272,-1.277269 -1.42375,-1.427036 -1.79948,-3.548049 -0.95616,-5.397583 0.31551,-0.691963 1.23885,-1.710426 1.90267,-2.098681 1.13989,-0.6667 0.29456,-0.634882 16.86829,-0.634882 16.57378,0 15.72847,-0.03184 16.86835,0.634882 0.59942,0.350597 1.52688,1.332683 1.84215,1.950655 0.13564,0.265856 0.32132,0.841744 0.41265,1.279753 0.32179,1.543311 -0.1603,3.115205 -1.3083,4.265856 -0.70944,0.711067 -1.271,1.035433 -2.22108,1.2829 -0.94298,0.245615 -30.32248,0.240318 -31.23585,-0.006 z"
       id="path837"
       inkscape:connector-curvature="0"
       inkscape:export-filename="C:\Users\jamie\minus.png"
       inkscape:export-xdpi="10.587987"
       inkscape:export-ydpi="10.587987" />
    <path
       style="fill:#c50000;fill-opacity:1;stroke-width:0.26458332"
       d="m 70.705335,164.89801 c -1.07952,-0.32305 -2.23371,-1.51324 -2.54135,-2.62062 -0.14378,-0.51759 -0.26209,-3.64975 -0.26291,-6.96035 l -0.001,-6.01927 h -6.37663 c -7.10748,0 -7.71628,-0.11987 -8.70092,-1.71305 -0.75511,-1.22179 -0.76406,-4.91677 -0.0149,-6.14546 0.96386,-1.58079 1.40509,-1.66649 8.57976,-1.66649 h 6.47866 l 0.0829,-6.54844 c 0.0758,-5.98686 0.12829,-6.62529 0.61208,-7.44456 0.80308,-1.35997 2.01392,-1.88218 4.3615,-1.88102 2.28252,10e-4 3.37222,0.49339 4.23888,1.91483 0.48716,0.79899 0.52584,1.34314 0.52675,7.41075 l 9.8e-4,6.54844 h 6.73767 6.73767 l 0.91909,0.80697 c 1.1969,1.05089 1.57799,2.26476 1.41708,4.51374 -0.14451,2.0198 -0.59612,2.91057 -1.86911,3.68676 -0.77782,0.47427 -1.36988,0.51563 -7.39396,0.51654 l -6.54844,9.8e-4 -5.3e-4,6.41614 c -5.3e-4,7.44077 -0.0979,7.85084 -2.10617,8.86353 -1.247,0.62883 -3.3789,0.76895 -4.87727,0.32057 z"
       id="path839-6"
       inkscape:connector-curvature="0"
       inkscape:export-xdpi="9.8494291"
       inkscape:export-ydpi="9.8494291" />
    <path
       style="fill:#c50000;fill-opacity:1;stroke-width:0.11273658"
       d="m 126.12758,149.15059 c -0.90294,-0.24314 -1.4786,-0.58155 -2.17272,-1.27727 -1.42375,-1.42703 -1.79948,-3.54804 -0.95616,-5.39758 0.31551,-0.69196 1.23885,-1.71042 1.90267,-2.09868 1.13989,-0.6667 0.29456,-0.63488 16.86829,-0.63488 16.57378,0 15.72847,-0.0318 16.86835,0.63488 0.59942,0.3506 1.52688,1.33268 1.84215,1.95066 0.13564,0.26585 0.32132,0.84174 0.41265,1.27975 0.32179,1.54331 -0.1603,3.1152 -1.3083,4.26585 -0.70944,0.71107 -1.271,1.03544 -2.22108,1.2829 -0.94298,0.24562 -30.32247,0.24032 -31.23585,-0.006 z"
       id="path837-0"
       inkscape:connector-curvature="0"
       inkscape:export-xdpi="10.587987"
       inkscape:export-ydpi="10.587987" />
    <path
       style="fill:#8f0000;fill-opacity:1;stroke-width:0.26458332"
       d="m 71.532301,227.58755 c -1.07952,-0.32305 -2.23371,-1.51324 -2.54135,-2.62062 -0.14378,-0.51759 -0.26209,-3.64975 -0.26291,-6.96035 l -0.001,-6.01927 h -6.37663 c -7.10748,0 -7.71628,-0.11987 -8.70092,-1.71305 -0.75511,-1.22179 -0.76406,-4.91677 -0.0149,-6.14546 0.96386,-1.58079 1.40509,-1.66649 8.57976,-1.66649 h 6.47866 l 0.0829,-6.54844 c 0.0758,-5.98686 0.12829,-6.62529 0.61208,-7.44456 0.80308,-1.35997 2.01392,-1.88218 4.3615,-1.88102 2.28252,0.001 3.37222,0.49339 4.23888,1.91483 0.48716,0.79899 0.52584,1.34314 0.52675,7.41075 l 9.8e-4,6.54844 h 6.73767 6.73767 l 0.91909,0.80697 c 1.1969,1.05089 1.57799,2.26476 1.41708,4.51374 -0.14451,2.0198 -0.59612,2.91057 -1.86911,3.68676 -0.77782,0.47427 -1.36988,0.51563 -7.39396,0.51654 l -6.54844,9.8e-4 -5.3e-4,6.41614 c -5.3e-4,7.44077 -0.0979,7.85084 -2.10617,8.86353 -1.247,0.62883 -3.3789,0.76895 -4.87727,0.32057 z"
       id="path839-6-4"
       inkscape:connector-curvature="0"
       inkscape:export-xdpi="9.849431"
       inkscape:export-ydpi="9.849431" />
    <path
       style="fill:#8f0000;fill-opacity:1;stroke-width:0.11273658"
       d="m 126.95456,211.84013 c -0.90294,-0.24314 -1.4786,-0.58155 -2.17272,-1.27727 -1.42375,-1.42703 -1.79948,-3.54804 -0.95616,-5.39758 0.31551,-0.69196 1.23885,-1.71042 1.90267,-2.09868 1.13989,-0.6667 0.29456,-0.63488 16.86829,-0.63488 16.57378,0 15.72846,-0.0318 16.86835,0.63488 0.59942,0.3506 1.52688,1.33268 1.84215,1.95066 0.13563,0.26585 0.32132,0.84174 0.41265,1.27975 0.32179,1.54331 -0.16031,3.1152 -1.3083,4.26585 -0.70944,0.71107 -1.271,1.03544 -2.22108,1.2829 -0.94299,0.24562 -30.32247,0.24032 -31.23585,-0.006 z"
       id="path837-0-1"
       inkscape:connector-curvature="0"
       inkscape:export-xdpi="10.587987"
       inkscape:export-ydpi="10.587987" />
  </g>
</svg>
