<?xml version="1.0" encoding="UTF-8" standalone="no"?>
<!-- Created with Inkscape (http://www.inkscape.org/) -->

<svg
   xmlns:dc="http://purl.org/dc/elements/1.1/"
   xmlns:cc="http://creativecommons.org/ns#"
   xmlns:rdf="http://www.w3.org/1999/02/22-rdf-syntax-ns#"
   xmlns:svg="http://www.w3.org/2000/svg"
   xmlns="http://www.w3.org/2000/svg"
   xmlns:sodipodi="http://sodipodi.sourceforge.net/DTD/sodipodi-0.dtd"
   xmlns:inkscape="http://www.inkscape.org/namespaces/inkscape"
   width="210mm"
   height="297mm"
   viewBox="0 0 210 297"
   version="1.1"
   id="svg8"
   inkscape:version="0.92.5 (2060ec1f9f, 2020-04-08)"
   sodipodi:docname="refresh.svg">
  <defs
     id="defs2" />
  <sodipodi:namedview
     id="base"
     pagecolor="#ffffff"
     bordercolor="#666666"
     borderopacity="1.0"
     inkscape:pageopacity="0.0"
     inkscape:pageshadow="2"
     inkscape:zoom="0.7"
     inkscape:cx="270.49039"
     inkscape:cy="718.57357"
     inkscape:document-units="mm"
     inkscape:current-layer="layer1"
     showgrid="false"
     inkscape:window-width="1912"
     inkscape:window-height="885"
     inkscape:window-x="74"
     inkscape:window-y="34"
     inkscape:window-maximized="0" />
  <metadata
     id="metadata5">
    <rdf:RDF>
      <cc:Work
         rdf:about="">
        <dc:format>image/svg+xml</dc:format>
        <dc:type
           rdf:resource="http://purl.org/dc/dcmitype/StillImage" />
        <dc:title></dc:title>
      </cc:Work>
    </rdf:RDF>
  </metadata>
  <g
     inkscape:label="Layer 1"
     inkscape:groupmode="layer"
     id="layer1">
    <path
       style="fill:#32bea6;fill-opacity:1;stroke-width:0.26458332"
       d="m 107.89069,103.50293 c -4.33745,-0.55131 -9.133983,-2.30769 -12.705031,-4.652287 -2.490391,-1.63508 -6.904217,-6.04891 -8.539302,-8.5393 -6.643275,-10.11833 -6.396159,-23.63339 0.612807,-33.51521 1.374552,-1.93796 4.671185,-5.27773 6.68395,-6.77142 8.398196,-6.23235 19.873596,-7.45869 29.643836,-3.16792 3.07587,1.35082 5.71954,3.14601 8.36198,5.6782 4.47789,4.29106 7.22704,9.11547 8.58114,15.0588 0.78094,3.42767 0.78094,9.37284 0,12.8005 -1.2797,5.61677 -3.6399,9.95781 -7.71706,14.19373 -4.32941,4.49798 -9.24495,7.212077 -15.43919,8.524687 -2.27132,0.48132 -7.17796,0.68321 -9.48313,0.39022 z m 8.05797,-8.893707 c 2.46501,-0.54262 6.24754,-2.37609 8.23782,-3.99303 1.89762,-1.54167 4.30711,-4.32492 4.53696,-5.24075 0.41142,-1.63921 -0.90931,-3.04409 -2.86362,-3.04604 -0.82992,-7.9e-4 -1.14905,0.17891 -1.98437,1.11761 -3.99752,4.4923 -7.0566,6.02515 -12.02435,6.02515 -4.21285,0 -7.38394,-1.32868 -10.4023,-4.35856 l -1.852084,-1.85915 1.957114,-0.13229 c 1.36569,-0.0923 2.03433,-0.25547 2.21266,-0.53993 0.19518,-0.31132 -0.53475,-1.63368 -3.0889,-5.59607 -1.83946,-2.85363 -3.529752,-5.3422 -3.756205,-5.53014 -0.293279,-0.2434 -0.538562,-0.26373 -0.852576,-0.0707 -0.242464,0.14906 -1.95298,2.63158 -3.801148,5.51669 -3.990374,6.22924 -3.989259,6.22013 -0.761581,6.22013 h 2.077204 l 1.066063,1.79445 c 3.156237,5.31273 7.832673,8.69923 13.566223,9.82413 1.93203,0.37905 5.70515,0.31488 7.73309,-0.13152 z m 14.54159,-23.06257 c 1.8138,-2.87404 3.38385,-5.37957 3.48899,-5.56784 0.42073,-0.7534 -0.39271,-1.11289 -2.5182,-1.11289 h -2.06984 l -0.99821,-1.91823 c -0.7095,-1.36341 -1.68938,-2.61348 -3.38786,-4.32202 -2.02239,-2.03435 -2.77597,-2.59344 -4.9032,-3.63774 -3.41828,-1.67811 -5.30849,-2.13298 -8.86354,-2.13298 -3.53536,0 -5.46261,0.45905 -8.73126,2.07968 -3.320671,1.64642 -6.89784,4.86124 -8.014316,7.20252 -0.785338,1.64687 0.544783,3.3782 2.595349,3.3782 0.961372,0 1.207354,-0.17373 3.229797,-2.28116 1.20404,-1.25465 2.73446,-2.59084 3.40094,-2.96932 5.85009,-3.32221 13.14702,-2.34893 17.88093,2.38499 0.92241,0.9224 1.6771,1.79315 1.6771,1.93499 0,0.14184 -0.85073,0.29287 -1.89051,0.33562 -1.34468,0.0553 -1.96384,0.1945 -2.14449,0.48216 -0.19304,0.30737 0.59103,1.72001 3.26751,5.88698 2.82545,4.3989 3.63628,5.48256 4.10224,5.48256 0.46701,0 1.22657,-1.02333 3.87857,-5.22552 z"
       id="path826"
       inkscape:connector-curvature="0"
       inkscape:export-xdpi="10.705357"
       inkscape:export-ydpi="10.705357" />
    <path
       style="fill:#03a3a4;fill-opacity:1;stroke-width:0.26458332"
       d="m 108.29971,185.53663 c -4.33745,-0.55131 -9.133989,-2.30769 -12.705029,-4.65229 -2.4904,-1.63508 -6.90422,-6.04891 -8.53931,-8.5393 -6.64327,-10.11833 -6.39615,-23.63339 0.61281,-33.51521 1.37455,-1.93796 4.67119,-5.27773 6.68395,-6.77142 8.398199,-6.23235 19.873599,-7.45869 29.643839,-3.16792 3.07587,1.35082 5.71954,3.14601 8.36198,5.6782 4.47789,4.29106 7.22704,9.11547 8.58114,15.0588 0.78094,3.42767 0.78094,9.37284 0,12.8005 -1.2797,5.61677 -3.6399,9.95781 -7.71706,14.19373 -4.32941,4.49798 -9.24495,7.21208 -15.43919,8.52469 -2.27132,0.48132 -7.17796,0.68321 -9.48313,0.39022 z m 8.05797,-8.89371 c 2.46501,-0.54262 6.24754,-2.37609 8.23782,-3.99303 1.89762,-1.54167 4.30711,-4.32492 4.53696,-5.24075 0.41142,-1.63921 -0.90931,-3.04409 -2.86362,-3.04604 -0.82992,-7.9e-4 -1.14905,0.17891 -1.98437,1.11761 -3.99752,4.4923 -7.0566,6.02515 -12.02435,6.02515 -4.21285,0 -7.38394,-1.32868 -10.4023,-4.35856 l -1.85209,-1.85915 1.95712,-0.13229 c 1.36569,-0.0923 2.03433,-0.25547 2.21266,-0.53993 0.19518,-0.31132 -0.53475,-1.63368 -3.0889,-5.59607 -1.839459,-2.85363 -3.529759,-5.3422 -3.756209,-5.53014 -0.29328,-0.2434 -0.53856,-0.26373 -0.85257,-0.0707 -0.24247,0.14906 -1.95298,2.63158 -3.80115,5.51669 -3.99038,6.22924 -3.98926,6.22013 -0.76158,6.22013 h 2.0772 l 1.06606,1.79445 c 3.15624,5.31273 7.832679,8.69923 13.566229,9.82413 1.93203,0.37905 5.70515,0.31488 7.73309,-0.13152 z m 14.54159,-23.06257 c 1.8138,-2.87404 3.38385,-5.37957 3.48899,-5.56784 0.42073,-0.7534 -0.39271,-1.11289 -2.5182,-1.11289 h -2.06984 l -0.99821,-1.91823 c -0.7095,-1.36341 -1.68938,-2.61348 -3.38786,-4.32202 -2.02239,-2.03435 -2.77597,-2.59344 -4.9032,-3.63774 -3.41828,-1.67811 -5.30849,-2.13298 -8.86354,-2.13298 -3.53536,0 -5.46261,0.45905 -8.73126,2.07968 -3.320669,1.64642 -6.897839,4.86124 -8.014319,7.20252 -0.78534,1.64687 0.54478,3.3782 2.59535,3.3782 0.96137,0 1.20735,-0.17373 3.229799,-2.28116 1.20404,-1.25465 2.73446,-2.59084 3.40094,-2.96932 5.85009,-3.32221 13.14702,-2.34893 17.88093,2.38499 0.92241,0.9224 1.6771,1.79315 1.6771,1.93499 0,0.14184 -0.85073,0.29287 -1.89051,0.33562 -1.34468,0.0553 -1.96384,0.1945 -2.14449,0.48216 -0.19304,0.30737 0.59103,1.72001 3.26751,5.88698 2.82545,4.3989 3.63628,5.48256 4.10224,5.48256 0.46701,0 1.22657,-1.02333 3.87857,-5.22552 z"
       id="path826-0"
       inkscape:connector-curvature="0" />
    <path
       style="fill:#3290a6;fill-opacity:1;stroke-width:0.26458332"
       d="m 106.03185,266.80151 c -4.33745,-0.55131 -9.133981,-2.30769 -12.705031,-4.65229 -2.49039,-1.63508 -6.90422,-6.04891 -8.5393,-8.5393 -6.64328,-10.11833 -6.39616,-23.63339 0.6128,-33.51521 1.37456,-1.93796 4.67119,-5.27773 6.68395,-6.77142 8.398201,-6.23235 19.873601,-7.45869 29.643841,-3.16792 3.07587,1.35082 5.71954,3.14601 8.36198,5.6782 4.47789,4.29106 7.22704,9.11547 8.58114,15.0588 0.78094,3.42768 0.78094,9.37284 0,12.80051 -1.2797,5.61676 -3.6399,9.9578 -7.71706,14.19372 -4.32941,4.49798 -9.24495,7.21208 -15.43919,8.52469 -2.27132,0.48132 -7.17796,0.68321 -9.48313,0.39022 z m 8.05797,-8.8937 c 2.46501,-0.54263 6.24754,-2.3761 8.23782,-3.99304 1.89762,-1.54166 4.30711,-4.32491 4.53696,-5.24075 0.41142,-1.63921 -0.90931,-3.04409 -2.86362,-3.04604 -0.82992,-7.9e-4 -1.14905,0.17891 -1.98437,1.11762 -3.99752,4.49229 -7.0566,6.02515 -12.02435,6.02515 -4.21285,0 -7.38394,-1.32869 -10.4023,-4.35857 l -1.85208,-1.85915 1.95711,-0.13228 c 1.36569,-0.0923 2.03433,-0.25548 2.21266,-0.53993 0.19518,-0.31133 -0.53475,-1.63368 -3.0889,-5.59607 -1.83946,-2.85364 -3.529751,-5.34221 -3.756201,-5.53015 -0.29328,-0.2434 -0.53857,-0.26373 -0.85258,-0.0707 -0.24246,0.14906 -1.95298,2.63158 -3.80115,5.51669 -3.99037,6.22924 -3.98926,6.22013 -0.76158,6.22013 h 2.0772 l 1.06607,1.79445 c 3.15623,5.31273 7.832671,8.69923 13.566221,9.82413 1.93203,0.37905 5.70515,0.31488 7.73309,-0.13152 z m 14.54159,-23.06257 c 1.8138,-2.87405 3.38385,-5.37958 3.48899,-5.56785 0.42073,-0.7534 -0.39271,-1.11289 -2.5182,-1.11289 h -2.06984 l -0.99821,-1.91823 c -0.7095,-1.36341 -1.68938,-2.61348 -3.38786,-4.32202 -2.02239,-2.03435 -2.77597,-2.59344 -4.9032,-3.63774 -3.41828,-1.67811 -5.30849,-2.13298 -8.86354,-2.13298 -3.53536,0 -5.46261,0.45905 -8.73126,2.07968 -3.32067,1.64642 -6.897841,4.86124 -8.014311,7.20252 -0.78534,1.64687 0.54478,3.3782 2.59534,3.3782 0.96138,0 1.20736,-0.17373 3.229801,-2.28116 1.20404,-1.25465 2.73446,-2.59084 3.40094,-2.96932 5.85009,-3.32221 13.14702,-2.34893 17.88093,2.38499 0.92241,0.9224 1.6771,1.79315 1.6771,1.93499 0,0.14184 -0.85073,0.29287 -1.89051,0.33562 -1.34468,0.0553 -1.96384,0.1945 -2.14449,0.48216 -0.19304,0.30737 0.59103,1.72001 3.26751,5.88698 2.82545,4.3989 3.63628,5.48256 4.10224,5.48256 0.46701,0 1.22657,-1.02333 3.87857,-5.22551 z"
       id="path826-4"
       inkscape:connector-curvature="0" />
  </g>
</svg>
