<?xml version="1.0" encoding="UTF-8" standalone="no"?>
<!-- Created with Inkscape (http://www.inkscape.org/) -->

<svg
   xmlns:dc="http://purl.org/dc/elements/1.1/"
   xmlns:cc="http://creativecommons.org/ns#"
   xmlns:rdf="http://www.w3.org/1999/02/22-rdf-syntax-ns#"
   xmlns:svg="http://www.w3.org/2000/svg"
   xmlns="http://www.w3.org/2000/svg"
   xmlns:sodipodi="http://sodipodi.sourceforge.net/DTD/sodipodi-0.dtd"
   xmlns:inkscape="http://www.inkscape.org/namespaces/inkscape"
   width="210mm"
   height="297mm"
   viewBox="0 0 210 297"
   version="1.1"
   id="svg8"
   inkscape:version="0.92.5 (2060ec1f9f, 2020-04-08)"
   sodipodi:docname="resets.svg">
  <defs
     id="defs2" />
  <sodipodi:namedview
     id="base"
     pagecolor="#ffffff"
     bordercolor="#666666"
     borderopacity="1.0"
     inkscape:pageopacity="0.0"
     inkscape:pageshadow="2"
     inkscape:zoom="0.49497475"
     inkscape:cx="437.48913"
     inkscape:cy="650.10473"
     inkscape:document-units="mm"
     inkscape:current-layer="layer1"
     showgrid="false"
     inkscape:window-width="2128"
     inkscape:window-height="843"
     inkscape:window-x="121"
     inkscape:window-y="49"
     inkscape:window-maximized="0" />
  <metadata
     id="metadata5">
    <rdf:RDF>
      <cc:Work
         rdf:about="">
        <dc:format>image/svg+xml</dc:format>
        <dc:type
           rdf:resource="http://purl.org/dc/dcmitype/StillImage" />
        <dc:title></dc:title>
      </cc:Work>
    </rdf:RDF>
  </metadata>
  <g
     inkscape:label="Layer 1"
     inkscape:groupmode="layer"
     id="layer1">
    <path
       style="fill:#ff0000;stroke-width:0.35277775;fill-opacity:0.22745098"
       d="m 31.329092,161.49854 c -4.95964,-0.74815 -9.449199,-3.04307 -13.104989,-6.69886 -2.61189,-2.61189 -4.321323,-5.26339 -5.516964,-8.55734 -0.847639,-2.33522 -1.569451,-6.59062 -1.569451,-9.2526 v -1.56198 H 5.4932439 c -3.104444,0 -5.64444404,-0.12051 -5.64444404,-0.26781 0,-0.14729 3.21610504,-3.48104 7.14690004,-7.40833 l 7.1469001,-7.14052 7.402033,7.40833 7.402029,7.40833 h -5.905879 -5.90587 v 2.27569 c 0,10.08598 7.856029,18.18542 17.638879,18.18542 9.52127,0 17.63889,-8.11762 17.63889,-17.63889 0,-4.61045 -1.8532,-8.97131 -5.26038,-12.3785 -3.55513,-3.55512 -7.74504,-5.26038 -12.92504,-5.26038 h -2.27569 v -3.05068 -3.05068 l 3.28732,0.23107 c 4.13728,0.29082 6.80423,0.96505 9.94185,2.5134 8.0879,3.9912 12.98922,11.9137 12.98922,20.99577 0,3.95957 -0.68828,6.94578 -2.39868,10.40695 -4.47961,9.06493 -14.51753,14.33872 -24.44219,12.84161 z"
       id="path826"
       inkscape:connector-curvature="0"
       inkscape:export-xdpi="11.828645"
       inkscape:export-ydpi="11.828645"
       inkscape:export-filename="D:\Downloads\reset_large_disabled.png" />
    <path
       style="fill:#ff0000;stroke-width:0.35277775;fill-opacity:0.68508285"
       d="m 97.569716,160.10628 c -4.95964,-0.74815 -9.4492,-3.04307 -13.10499,-6.69886 -2.61189,-2.61189 -4.32133,-5.26339 -5.51697,-8.55734 -0.84764,-2.33522 -1.56945,-6.59062 -1.56945,-9.2526 v -1.56198 h -5.644443 c -3.104444,0 -5.644444,-0.12051 -5.644444,-0.26781 0,-0.14729 3.216105,-3.48104 7.1469,-7.40833 l 7.146897,-7.14052 7.40204,7.40833 7.40203,7.40833 h -5.90588 -5.90587 v 2.27569 c 0,10.08598 7.85603,18.18541 17.638884,18.18541 9.52127,0 17.63889,-8.11761 17.63889,-17.63888 0,-4.61045 -1.8532,-8.97131 -5.26038,-12.3785 -3.55513,-3.55512 -7.74504,-5.26038 -12.92504,-5.26038 h -2.275694 v -3.05068 -3.05068 l 3.287324,0.23107 c 4.13728,0.29082 6.80423,0.96505 9.94185,2.5134 8.0879,3.9912 12.98922,11.9137 12.98922,20.99577 0,3.95957 -0.68828,6.94578 -2.39868,10.40695 -4.47961,9.06493 -14.51753,14.33872 -24.442194,12.84161 z"
       id="path826-2"
       inkscape:connector-curvature="0"
       inkscape:export-xdpi="11.828645"
       inkscape:export-ydpi="11.828645"
       inkscape:export-filename="D:\Downloads\reset_large_up.png" />
    <path
       style="fill:#b20000;stroke-width:0.35277775;fill-opacity:1"
       d="m 161.82566,157.83842 c -4.95964,-0.74815 -9.4492,-3.04307 -13.10499,-6.69886 -2.61189,-2.61189 -4.32132,-5.26339 -5.51696,-8.55734 -0.84764,-2.33522 -1.56945,-6.59062 -1.56945,-9.2526 v -1.56198 h -5.64445 c -3.10444,0 -5.64444,-0.12051 -5.64444,-0.26781 0,-0.14729 3.21611,-3.48104 7.1469,-7.40833 l 7.1469,-7.14052 7.40203,7.40833 7.40203,7.40833 h -5.90588 -5.90587 v 2.27569 c 0,10.08598 7.85603,18.18542 17.63888,18.18542 9.52127,0 17.63889,-8.11762 17.63889,-17.63889 0,-4.61045 -1.8532,-8.97131 -5.26038,-12.3785 -3.55513,-3.55512 -7.74504,-5.26038 -12.92504,-5.26038 h -2.27569 v -3.05068 -3.05068 l 3.28732,0.23107 c 4.13728,0.29082 6.80423,0.96505 9.94185,2.5134 8.0879,3.9912 12.98922,11.9137 12.98922,20.99577 0,3.95957 -0.68828,6.94578 -2.39868,10.40695 -4.47961,9.06493 -14.51753,14.33872 -24.44219,12.84161 z"
       id="path826-7"
       inkscape:connector-curvature="0"
       inkscape:export-xdpi="11.828649"
       inkscape:export-ydpi="11.828649"
       inkscape:export-filename="D:\Downloads\reset_large_down.png" />
    <path
       style="fill:#da0000;stroke-width:0.35277775;fill-opacity:1"
       d="m 224.19174,157.08246 c -4.95964,-0.74815 -9.4492,-3.04307 -13.10499,-6.69886 -2.61189,-2.61189 -4.32132,-5.26339 -5.51696,-8.55734 -0.84764,-2.33522 -1.56945,-6.59062 -1.56945,-9.2526 v -1.56198 h -5.64444 c -3.10445,0 -5.64445,-0.12051 -5.64445,-0.26781 0,-0.14729 3.21611,-3.48104 7.1469,-7.40833 l 7.1469,-7.14052 7.40203,7.40833 7.40203,7.40833 h -5.90588 -5.90587 v 2.27569 c 0,10.08598 7.85603,18.18542 17.63888,18.18542 9.52127,0 17.63889,-8.11761 17.63889,-17.63889 0,-4.61045 -1.8532,-8.97131 -5.26038,-12.3785 -3.55513,-3.55512 -7.74504,-5.26038 -12.92504,-5.26038 h -2.27569 v -3.05068 -3.05068 l 3.28732,0.23107 c 4.13728,0.29082 6.80423,0.96505 9.94186,2.5134 8.08789,3.9912 12.98921,11.9137 12.98921,20.99577 0,3.95957 -0.68828,6.94578 -2.39868,10.40695 -4.47961,9.06493 -14.51753,14.33873 -24.44219,12.84161 z"
       id="path826-6"
       inkscape:connector-curvature="0"
       inkscape:export-xdpi="11.828645"
       inkscape:export-ydpi="11.828645"
       inkscape:export-filename="D:\Downloads\reset_large_hover.png" />
  </g>
</svg>
