<?xml version="1.0" encoding="UTF-8" standalone="no"?>
<!-- Created with Inkscape (http://www.inkscape.org/) -->

<svg
   xmlns:dc="http://purl.org/dc/elements/1.1/"
   xmlns:cc="http://creativecommons.org/ns#"
   xmlns:rdf="http://www.w3.org/1999/02/22-rdf-syntax-ns#"
   xmlns:svg="http://www.w3.org/2000/svg"
   xmlns="http://www.w3.org/2000/svg"
   xmlns:sodipodi="http://sodipodi.sourceforge.net/DTD/sodipodi-0.dtd"
   xmlns:inkscape="http://www.inkscape.org/namespaces/inkscape"
   width="210mm"
   height="297mm"
   viewBox="0 0 210 297"
   version="1.1"
   id="svg8"
   inkscape:version="0.92.5 (2060ec1f9f, 2020-04-08)"
   sodipodi:docname="success.svg">
  <defs
     id="defs2" />
  <sodipodi:namedview
     id="base"
     pagecolor="#ffffff"
     bordercolor="#666666"
     borderopacity="1.0"
     inkscape:pageopacity="0.0"
     inkscape:pageshadow="2"
     inkscape:zoom="0.49497475"
     inkscape:cx="243.65549"
     inkscape:cy="708.78665"
     inkscape:document-units="mm"
     inkscape:current-layer="layer1"
     showgrid="false"
     inkscape:window-width="1525"
     inkscape:window-height="671"
     inkscape:window-x="244"
     inkscape:window-y="123"
     inkscape:window-maximized="0" />
  <metadata
     id="metadata5">
    <rdf:RDF>
      <cc:Work
         rdf:about="">
        <dc:format>image/svg+xml</dc:format>
        <dc:type
           rdf:resource="http://purl.org/dc/dcmitype/StillImage" />
        <dc:title></dc:title>
      </cc:Work>
    </rdf:RDF>
  </metadata>
  <g
     inkscape:label="Layer 1"
     inkscape:groupmode="layer"
     id="layer1">
    <path
       style="fill:#00bd00;fill-opacity:1;stroke-width:0.26458332"
       d="m 93.636008,221.20104 c -2.99246,-0.22373 -8.917606,-1.21583 -12.170826,-2.03788 -12.73442,-3.21784 -24.75529,-10.06851 -34.14726,-19.46048 -14.470369,-14.47037 -22.325292,-34.3012 -21.595259,-54.52017 0.708176,-19.6136 8.538879,-37.22861 22.593639,-50.823956 11.66671,-11.285359 26.02994,-18.149051 42.381456,-20.25264 4.4954,-0.578324 13.315122,-0.574643 17.843172,0.0074 14.63875,1.881842 27.99838,7.781501 39.0362,17.238523 25.71199,22.029613 33.20964,58.315053 18.31222,88.623323 -11.46486,23.32483 -33.85057,38.75417 -59.68563,41.13827 -2.686,0.24787 -9.763902,0.29718 -12.567712,0.0876 z m 13.139022,-15.04315 c 7.86173,-1.03058 14.58474,-3.20768 21.28639,-6.89315 4.88229,-2.68493 8.65546,-5.5215 12.90848,-9.70423 18.23734,-17.93596 22.88976,-45.09249 11.65964,-68.05821 -8.70663,-17.80516 -25.78941,-30.015859 -45.76436,-32.712173 -3.23456,-0.436615 -11.317532,-0.436615 -14.552092,0 -22.909306,3.092409 -41.742016,18.581183 -48.847528,40.174153 -9.589987,29.14304 4.661562,60.7591 32.838222,72.84931 5.06212,2.17209 11.29924,3.85227 16.538476,4.45523 3.3601,0.38669 10.574912,0.32925 13.932772,-0.11093 z M 76.834972,183.30351 c -6.87564,-2.15164 -8.68347,-3.12985 -9.77875,-5.29128 -0.8845,-1.74549 -1.90363,-8.00761 -3.06742,-18.84799 -0.55376,-5.15823 -1.01214,-18.31195 -0.68373,-19.62046 0.41455,-1.65171 1.75407,-1.87417 5.84269,-0.97033 4.97506,1.09981 6.7137,1.77343 8.05563,3.12109 0.73682,0.73998 1.3589,1.66527 1.54452,2.29734 0.17094,0.58208 0.50609,3.73724 0.74478,7.01146 0.61286,8.40698 1.02,12.70338 1.21039,12.77264 0.0902,0.0328 2.28315,-2.26207 4.87329,-5.09972 5.795636,-6.34949 19.638878,-20.20607 25.522138,-25.54673 8.17265,-7.41891 16.32672,-14.20533 18.31065,-15.23947 1.87115,-0.97535 3.60637,-0.83067 6.17445,0.51479 2.50988,1.31498 6.21332,4.2013 7.13944,5.56421 0.36005,0.52985 0.65463,1.26765 0.65463,1.63955 0,0.90504 -0.75383,1.7003 -5.41476,5.71238 -15.04365,12.94942 -33.87757,31.60174 -47.297152,46.84109 -5.022226,5.70327 -5.711296,6.19052 -8.707226,6.15688 -1.46768,-0.0165 -2.73215,-0.26709 -5.12357,-1.01545 z"
       id="path4531"
       inkscape:connector-curvature="0" />
    <path
       style="fill:#000000;stroke-width:0.26458332"
       d=""
       id="path4529"
       inkscape:connector-curvature="0" />
  </g>
</svg>
