<?xml version="1.0" encoding="UTF-8" standalone="no"?>
<!-- Created with Inkscape (http://www.inkscape.org/) -->

<svg
   xmlns:dc="http://purl.org/dc/elements/1.1/"
   xmlns:cc="http://creativecommons.org/ns#"
   xmlns:rdf="http://www.w3.org/1999/02/22-rdf-syntax-ns#"
   xmlns:svg="http://www.w3.org/2000/svg"
   xmlns="http://www.w3.org/2000/svg"
   xmlns:sodipodi="http://sodipodi.sourceforge.net/DTD/sodipodi-0.dtd"
   xmlns:inkscape="http://www.inkscape.org/namespaces/inkscape"
   width="210mm"
   height="297mm"
   viewBox="0 0 210 297"
   version="1.1"
   id="svg8"
   inkscape:version="0.92.5 (2060ec1f9f, 2020-04-08)"
   sodipodi:docname="tick_cross.svg">
  <defs
     id="defs2" />
  <sodipodi:namedview
     id="base"
     pagecolor="#ffffff"
     bordercolor="#666666"
     borderopacity="1.0"
     inkscape:pageopacity="0.0"
     inkscape:pageshadow="2"
     inkscape:zoom="0.49497475"
     inkscape:cx="199.49848"
     inkscape:cy="549.06949"
     inkscape:document-units="mm"
     inkscape:current-layer="layer1"
     showgrid="false"
     inkscape:window-width="2560"
     inkscape:window-height="1017"
     inkscape:window-x="-8"
     inkscape:window-y="-8"
     inkscape:window-maximized="1" />
  <metadata
     id="metadata5">
    <rdf:RDF>
      <cc:Work
         rdf:about="">
        <dc:format>image/svg+xml</dc:format>
        <dc:type
           rdf:resource="http://purl.org/dc/dcmitype/StillImage" />
        <dc:title></dc:title>
      </cc:Work>
    </rdf:RDF>
  </metadata>
  <g
     inkscape:label="Layer 1"
     inkscape:groupmode="layer"
     id="layer1">
    <path
       style="fill:#ff0000;stroke-width:0.08466666"
       d="m 82.949285,207.85375 c -0.65875,-0.10388 -1.58551,-0.43501 -2.16669,-0.77417 -0.65883,-0.38447 -3.93675,-3.66475 -4.32285,-4.32595 -1.04864,-1.79585 -1.09374,-3.98666 -0.12021,-5.83929 0.16539,-0.31475 0.5759,-0.86782 0.91223,-1.22905 0.33634,-0.36123 4.19421,-4.2405 8.57304,-8.62059 4.37884,-4.3801 8.02689,-8.09021 8.10678,-8.2447 0.0799,-0.15449 0.12798,-0.37125 0.10687,-0.48169 -0.0211,-0.11044 -0.003,-0.2008 0.0397,-0.2008 0.10808,0 -0.009,-0.74544 -0.16665,-1.05833 -0.0703,-0.1397 -3.7103,-3.8354 -8.08898,-8.21267 -4.37869,-4.37727 -8.23599,-8.25422 -8.57178,-8.61545 -1.09074,-1.17337 -1.59827,-2.46085 -1.59346,-4.04222 0.004,-1.35244 0.36531,-2.48174 1.11496,-3.48593 0.54058,-0.72413 3.47228,-3.54952 4.01032,-3.86489 1.96664,-1.15276 4.48268,-1.08876 6.33599,0.16117 0.25777,0.17384 4.23212,4.07907 8.90207,8.74725 6.369935,6.36752 8.526765,8.47421 8.805325,8.60061 0.47085,0.21365 1.03003,0.21319 1.50266,-0.001 0.28234,-0.1281 2.39977,-2.19651 8.80533,-8.60144 4.70941,-4.70895 8.63924,-8.5711 8.89928,-8.74601 1.91884,-1.29068 4.60175,-1.30716 6.51933,-0.04 0.54629,0.36098 3.33382,3.08976 3.82522,3.74461 0.74992,0.99933 1.11261,2.1315 1.11672,3.48593 0.005,1.58164 -0.50287,2.86925 -1.59375,4.04222 -0.33595,0.36123 -4.19875,4.24337 -8.584,8.62698 -8.36856,8.36542 -8.33357,8.3274 -8.30128,9.02159 0.0233,0.50005 0.16112,0.93281 0.28234,0.88629 0.076,-0.0291 0.0988,0.008 0.0708,0.11548 -0.0317,0.12124 1.83569,2.03795 7.93329,8.14283 4.38612,4.39135 8.25026,8.27535 8.58699,8.6311 1.87098,1.97673 2.16522,4.92773 0.71762,7.19719 -0.37789,0.59243 -3.05916,3.35263 -3.78802,3.89953 -0.97995,0.7353 -2.14873,1.10841 -3.48325,1.11198 -1.26482,0.003 -2.31768,-0.30449 -3.302,-0.96554 -0.26138,-0.17554 -4.16458,-4.01201 -8.89718,-8.74507 -6.43177,-6.4324 -8.52017,-8.47256 -8.80533,-8.60193 -0.47564,-0.21579 -1.03346,-0.21604 -1.50811,-6.8e-4 -0.28309,0.12845 -2.39251,2.18914 -8.805325,8.60193 -4.73176,4.73173 -8.63743,8.57027 -8.89872,8.74575 -1.155,0.77568 -2.81701,1.1485 -4.1693,0.93526 z"
       id="path841"
       inkscape:connector-curvature="0"
       sodipodi:nodetypes="cccccsccsccccsccsccsccccsscccscccccsccsccc"
       inkscape:export-xdpi="7.6355534"
       inkscape:export-ydpi="7.6355534" />
    <path
       style="fill:#00be00;stroke-width:0.12244;fill-opacity:1"
       d="m 97.775041,123.56691 c -0.37038,-0.0275 -0.72577,-0.10202 -0.78974,-0.16551 -0.064,-0.0635 -0.23531,-0.11542 -0.38073,-0.11542 -0.36579,0 -1.62864,-0.66917 -2.34,-1.23993 -0.3252,-0.26092 -0.64637,-0.51759 -0.71371,-0.57036 -0.82949,-0.65001 -3.93324,-3.15251 -3.9793,-3.20844 -0.0337,-0.0409 -0.25406,-0.20742 -0.48977,-0.37008 -0.23569,-0.16266 -0.62138,-0.47634 -0.857074,-0.69707 -0.235695,-0.22072 -0.465926,-0.4018 -0.511624,-0.40238 -0.04568,-4.6e-4 -0.155891,-0.072 -0.244881,-0.15863 -0.08898,-0.0867 -0.630125,-0.53064 -1.202533,-0.98662 -0.572408,-0.45599 -1.123386,-0.89549 -1.224403,-0.97669 -0.101012,-0.0812 -0.431598,-0.33971 -0.73464,-0.57449 -0.303037,-0.23477 -0.578526,-0.45697 -0.612197,-0.49378 -0.03369,-0.0368 -0.402481,-0.32691 -0.819576,-0.64466 -0.417095,-0.31776 -0.83033,-0.64839 -0.918302,-0.73474 -0.08797,-0.0863 -1.019768,-0.84312 -2.070662,-1.6817 -2.798754,-2.23332 -2.819305,-2.24941 -3.0299,-2.37205 -0.10645,-0.062 -0.310928,-0.22729 -0.454394,-0.36732 -0.143462,-0.14003 -0.723862,-0.61274 -1.289774,-1.05046 -0.565915,-0.43772 -1.323194,-1.0703 -1.68285,-1.40572 -0.639047,-0.59599 -1.624233,-2.08585 -1.701797,-2.57358 -0.02143,-0.13468 -0.09245,-0.26325 -0.157844,-0.28569 -0.0654,-0.0224 -0.118903,-0.22582 -0.118903,-0.45193 0,-0.22611 -0.0551,-0.44516 -0.122439,-0.48678 -0.07051,-0.0436 -0.122438,-0.69269 -0.122438,-1.5305 0,-0.837809 0.05193,-1.48692 0.122438,-1.530499 0.06734,-0.0416 0.122439,-0.234465 0.122439,-0.428544 0,-0.194074 0.0551,-0.386917 0.122443,-0.428538 0.06734,-0.0416 0.122438,-0.210165 0.122438,-0.374544 0,-0.164383 0.0551,-0.298877 0.122439,-0.298877 0.06735,0 0.122443,-0.105603 0.122443,-0.234673 0,-0.129074 0.04133,-0.253044 0.09183,-0.275493 0.05051,-0.02244 0.244076,-0.261203 0.430164,-0.53057 0.186082,-0.269371 0.55032,-0.720169 0.809418,-1.00178 0.49477,-0.537766 1.895625,-1.50824 2.177107,-1.50824 0.09057,0 0.16468,-0.0551 0.16468,-0.122444 0,-0.06734 0.137742,-0.122438 0.3061,-0.122438 0.168354,0 0.306097,-0.04382 0.306097,-0.09741 0,-0.05358 0.206509,-0.111323 0.45891,-0.128325 0.252401,-0.01698 0.51136,-0.08336 0.575467,-0.147465 0.140019,-0.140019 2.35393,-0.157918 2.439338,-0.01971 0.0329,0.05326 0.253147,0.109856 0.489398,0.125766 0.236255,0.01592 0.580539,0.10726 0.765071,0.202997 0.184537,0.09574 0.380791,0.14609 0.436129,0.111892 0.05533,-0.0342 0.100609,-0.0037 0.100609,0.06748 0,0.07132 0.110194,0.129667 0.244877,0.129667 0.134688,0 0.244882,0.04628 0.244882,0.102785 0,0.05653 0.144244,0.168506 0.320539,0.248833 0.176295,0.08033 0.647936,0.405984 1.048094,0.723686 0.400153,0.317698 0.909232,0.717518 1.131281,0.888482 0.222053,0.170969 0.618203,0.486084 0.880337,0.700252 0.262133,0.214172 0.834745,0.673291 1.27247,1.020268 0.437721,0.346977 0.878504,0.70519 0.979517,0.796029 0.404369,0.363637 3.291506,2.621183 3.352186,2.621183 0.0358,0 0.19562,0.12397 0.35525,0.27549 0.15964,0.15152 0.41749,0.37771 0.57301,0.50265 3.91806,3.14776 4.74938,3.79813 4.90861,3.84019 0.19085,0.0504 0.85103,-0.51239 0.85103,-0.7255 0,-0.0629 0.16529,-0.35454 0.36732,-0.64817 0.20202,-0.29363 0.36732,-0.5683 0.36732,-0.61037 0,-0.0421 0.21227,-0.39028 0.47172,-0.7738 0.25946,-0.38352 0.78995,-1.22074 1.178879,-1.86049 0.38893,-0.639751 0.96684,-1.576416 1.28424,-2.081483 0.83479,-1.328343 0.98462,-1.578153 1.00896,-1.682252 0.012,-0.05122 0.12128,-0.199934 0.24291,-0.33048 0.12162,-0.13055 0.22113,-0.284554 0.22113,-0.342242 0,-0.05768 0.26171,-0.503424 0.58159,-0.990531 0.31987,-0.487107 0.64808,-0.994274 0.72936,-1.127037 0.0813,-0.132768 0.46696,-0.759227 0.85708,-1.392137 0.39012,-0.632906 0.79378,-1.294082 0.89702,-1.46928 0.10324,-0.175194 0.34757,-0.566476 0.54296,-0.869518 0.81256,-1.260239 1.53447,-2.474133 1.53447,-2.580226 0,-0.0624 0.0437,-0.113452 0.0971,-0.113452 0.0534,0 0.45025,-0.592302 0.88193,-1.316229 0.43169,-0.723927 1.04919,-1.713204 1.37223,-2.198388 0.32304,-0.485191 0.58735,-0.913046 0.58735,-0.950793 0,-0.06558 0.2413,-0.453853 1.42809,-2.297931 0.29202,-0.453751 0.53095,-0.84917 0.53095,-0.878704 0,-0.02952 0.26171,-0.459345 0.58159,-0.955138 0.31987,-0.495793 0.65086,-1.009495 0.73552,-1.141559 0.0847,-0.132064 0.22202,-0.377861 0.30523,-0.546215 0.0832,-0.168354 0.24806,-0.412875 0.36635,-0.54337 0.11828,-0.1305 0.28365,-0.392212 0.36747,-0.58159 0.0838,-0.189377 0.19406,-0.34432 0.24497,-0.34432 0.0509,0 0.0926,-0.05186 0.0926,-0.115243 0,-0.06338 0.59409,-1.068918 1.3202,-2.234527 0.72611,-1.165613 1.46997,-2.37711 1.65303,-2.692221 0.18305,-0.315115 0.40165,-0.645701 0.48578,-0.73464 0.0841,-0.08894 0.28633,-0.409653 0.44932,-0.712691 0.16299,-0.303037 0.50735,-0.864769 0.76525,-1.248291 0.25789,-0.383521 0.46889,-0.77839 0.46889,-0.877487 0,-0.0991 0.0501,-0.19854 0.11125,-0.220988 0.0612,-0.02245 0.69958,-0.977479 1.41866,-2.122293 1.36341,-2.170615 1.85234,-2.777468 2.72895,-3.387075 0.79949,-0.555983 1.85514,-1.081985 2.17148,-1.081985 0.1559,0 0.30444,-0.06293 0.33007,-0.139846 0.0635,-0.19051 3.46106,-0.187711 3.69091,0.0031 0.0905,0.07509 0.31045,0.14861 0.48884,0.163373 0.17838,0.01476 0.32433,0.06992 0.32433,0.122577 0,0.05265 0.13774,0.09574 0.3061,0.09574 0.16835,0 0.3061,0.0551 0.3061,0.12244 0,0.06734 0.0589,0.12244 0.13098,0.12244 0.4404,0 2.39336,1.762645 2.77183,2.501711 0.10579,0.206596 0.2283,0.403178 0.27223,0.436849 0.0439,0.03367 0.15527,0.295386 0.2474,0.58159 0.0921,0.286203 0.21379,0.52037 0.27036,0.52037 0.0565,0 0.10284,0.192843 0.10284,0.42854 0,0.235697 0.0551,0.42854 0.12243,0.42854 0.0753,0 0.12245,0.609791 0.12245,1.584493 0,0.924258 -0.051,1.616027 -0.12245,1.660166 -0.0673,0.0416 -0.12243,0.212103 -0.12243,0.378856 0,0.166749 -0.089,0.438984 -0.19775,0.604973 -0.10875,0.165985 -0.1601,0.301793 -0.1141,0.301793 0.046,0 -0.0303,0.160024 -0.16958,0.355607 -0.13927,0.195588 -0.25321,0.386159 -0.25321,0.423495 0,0.05712 -1.05981,1.779999 -3.55022,5.771438 -3.11732,4.996204 -3.79618,6.100964 -3.79618,6.177769 0,0.04946 -0.1102,0.18966 -0.24489,0.311548 -0.13468,0.121888 -0.24487,0.264128 -0.24487,0.316092 0,0.05196 -0.26549,0.525525 -0.58996,1.052368 -0.32449,0.526844 -0.66885,1.092839 -0.76526,1.257764 -0.0964,0.164929 -0.2717,0.409482 -0.38955,0.543457 -0.11785,0.133975 -0.21428,0.291325 -0.21428,0.349666 0,0.05834 -0.21841,0.427697 -0.48536,0.820793 -0.26694,0.3931 -0.50111,0.788228 -0.52036,0.87806 -0.0192,0.08983 -0.0949,0.228467 -0.1681,0.308081 -0.0732,0.07961 -0.31527,0.439058 -0.53793,0.798775 -0.22266,0.359712 -0.63479,1.01216 -0.91584,1.449881 -0.28105,0.437725 -0.54962,0.878509 -0.59683,0.979521 -0.0472,0.101013 -0.38566,0.651995 -0.7521,1.224399 -0.74886,1.169745 -1.93799,3.095293 -2.37089,3.839147 -0.15765,0.270889 -0.50202,0.809681 -0.76525,1.197312 -0.26324,0.387631 -0.47861,0.736019 -0.47861,0.774192 0,0.03818 -0.23938,0.440655 -0.53196,0.894405 -0.7947,1.232491 -1.9277,3.045661 -2.77257,4.436981 -1.03954,1.71192 -1.38901,2.26965 -1.4577,2.32636 -0.0408,0.0337 -0.20751,0.30916 -0.37051,0.6122 -0.16299,0.30304 -0.50735,0.86477 -0.76524,1.24829 -0.2579,0.38352 -0.4689,0.75084 -0.4689,0.81627 0,0.0654 -0.0422,0.13732 -0.0938,0.15977 -0.0516,0.0224 -0.32991,0.4265 -0.61848,0.89789 -0.7774,1.26992 -0.81007,1.3223 -0.91228,1.4626 -0.29983,0.41153 -0.8201,1.24337 -0.82201,1.31426 -0.001,0.0457 -0.22261,0.41497 -0.49198,0.82051 -0.26937,0.40554 -0.48976,0.76812 -0.48976,0.80572 0,0.0376 -0.29411,0.52239 -0.65358,1.0773 -1.12364,1.73455 -1.55611,2.41981 -1.79042,2.83698 -0.12466,0.22195 -0.30071,0.53506 -0.39122,0.6958 -0.0905,0.16075 -0.20266,0.32108 -0.24922,0.35629 -0.0466,0.0352 -0.16575,0.22031 -0.26486,0.41134 -0.45204,0.8713 -2.68698,2.7693 -3.26092,2.7693 -0.1243,0 -0.2452,0.0575 -0.26864,0.12788 -0.0235,0.0703 -0.17956,0.13657 -0.34691,0.14718 -0.16736,0.0106 -0.33184,0.0562 -0.36551,0.10126 -0.0813,0.10881 -2.209999,0.21277 -3.060999,0.14949 z"
       id="path837"
       inkscape:connector-curvature="0"
       inkscape:export-xdpi="6.7983193"
       inkscape:export-ydpi="6.7983193" />
  </g>
</svg>
