<?xml version="1.0" encoding="UTF-8" standalone="no"?>
<!-- Generator: Adobe Illustrator 21.0.0, SVG Export Plug-In . SVG Version: 6.00 Build 0)  -->

<svg
   xmlns:dc="http://purl.org/dc/elements/1.1/"
   xmlns:cc="http://creativecommons.org/ns#"
   xmlns:rdf="http://www.w3.org/1999/02/22-rdf-syntax-ns#"
   xmlns:svg="http://www.w3.org/2000/svg"
   xmlns="http://www.w3.org/2000/svg"
   xmlns:sodipodi="http://sodipodi.sourceforge.net/DTD/sodipodi-0.dtd"
   xmlns:inkscape="http://www.inkscape.org/namespaces/inkscape"
   version="1.1"
   id="svg8"
   inkscape:export-filename="D:\OneDrive\Documents\Work\Repositories\YTMusicUploader\YTMusicUploader\Resources\Logo\yt_logo-16.png"
   inkscape:export-xdpi="5.3759995"
   inkscape:export-ydpi="5.3759995"
   inkscape:version="0.92.5 (2060ec1f9f, 2020-04-08)"
   sodipodi:docname="yt_logo_sm.svg"
   x="0px"
   y="0px"
   viewBox="0 0 207 208.5"
   style="enable-background:new 0 0 207 208.5;"
   xml:space="preserve"><metadata
   id="metadata11"><rdf:RDF><cc:Work
       rdf:about=""><dc:format>image/svg+xml</dc:format><dc:type
         rdf:resource="http://purl.org/dc/dcmitype/StillImage" /></cc:Work></rdf:RDF></metadata><defs
   id="defs9" />
<style
   type="text/css"
   id="style2">
	.st0{fill:#FF0000;}
	.st1{fill:#FFFFFF;}
</style>
<sodipodi:namedview
   bordercolor="#666666"
   borderopacity="1.0"
   id="base"
   inkscape:current-layer="layer1"
   inkscape:cx="-835.68506"
   inkscape:cy="180.32621"
   inkscape:document-units="mm"
   inkscape:pageopacity="0.0"
   inkscape:pageshadow="2"
   inkscape:window-height="740"
   inkscape:window-maximized="0"
   inkscape:window-width="1300"
   inkscape:window-x="979"
   inkscape:window-y="130"
   inkscape:zoom="0.24748737"
   pagecolor="#ffffff"
   showgrid="false">
	</sodipodi:namedview>
<g
   id="layer1"
   inkscape:groupmode="layer"
   inkscape:label="Layer 1">
	
	
<circle
   style="fill:#ff0000;fill-opacity:1;stroke:none;stroke-width:11.02110236;stroke-miterlimit:4;stroke-dasharray:none;stroke-opacity:1"
   id="path4559"
   cx="113.13708"
   cy="-205.66254"
   r="142.85715"
   inkscape:export-filename="D:\OneDrive\Documents\Work\Repositories\YTMusicUploader\YTMusicUploader\Resources\Logo\yt_logo-16.png"
   inkscape:export-xdpi="5.1763291"
   inkscape:export-ydpi="5.1763291" /><path
   id="path4542-9"
   inkscape:connector-curvature="0"
   class="st0"
   d="m 68.61941,-130.86271 c -12.32142,-2.75266 -21.62803,-14.02545 -21.75911,-26.34687 0,-3.14589 0.13108,-4.3256 0.78648,-5.76747 3.40805,-7.20935 13.23897,-8.91338 18.87536,-3.27699 1.83511,1.83512 2.88374,4.06346 3.1459,7.07828 0.39324,2.75266 1.04863,4.19453 2.4905,5.11208 0.91755,0.65539 4.58776,0.65539 41.15878,0.65539 h 40.11016 l 1.31079,-1.31079 c 1.17971,-1.17971 1.44186,-1.8351 1.70402,-3.80129 0.78648,-6.81611 5.24316,-11.01064 11.66603,-11.01064 4.45668,0 8.12689,2.22834 10.22415,6.16072 1.44187,2.88374 1.44187,9.30661 0,13.63221 -2.88373,8.78229 -9.56876,15.46732 -18.08889,18.35105 l -3.40805,1.17971 -42.86281,0.13108 c -35.26023,-0.26216 -43.12497,-0.26216 -45.35331,-0.78647 z m 40.50339,-48.23706 c -2.4905,-0.91755 -5.24316,-3.53913 -6.42287,-6.02963 l -1.04863,-2.22834 -0.13108,-34.21161 -0.13108,-34.21161 -7.73366,7.73367 c -8.78229,8.78229 -10.48631,9.83092 -14.94299,9.83092 -4.84993,0 -9.04445,-2.88374 -10.74848,-7.73366 -1.04863,-2.62158 -0.65539,-6.94718 0.78648,-9.43769 1.57294,-2.62158 37.48857,-38.27505 39.58583,-39.1926 2.35942,-1.04863 5.89856,-1.31079 8.52013,-0.39324 2.09727,0.6554 3.40806,1.96619 21.23479,19.66184 20.97263,20.84155 20.84155,20.71047 20.84155,25.69148 0,4.981 -3.14589,9.30661 -7.73365,10.87955 -2.75266,0.91756 -6.55395,0.6554 -9.04445,-0.65539 -1.04863,-0.52432 -4.981,-4.06345 -9.69984,-8.65121 l -7.86474,-7.73367 v 33.94946 c 0,32.90081 0,33.94944 -0.78647,36.17778 -0.91755,2.35942 -3.40805,5.11208 -5.76747,6.42287 -1.96619,0.78647 -6.68503,0.91755 -8.91337,0.13108 z"
   inkscape:export-filename="D:\OneDrive\Documents\Work\Repositories\YTMusicUploader\YTMusicUploader\Resources\Logo\yt_logo-16.png"
   inkscape:export-xdpi="5.1763291"
   inkscape:export-ydpi="5.1763291"
   style="fill:#ffffff;stroke-width:11.02110236;stroke-miterlimit:4;stroke-dasharray:none;stroke:none" /></g>
</svg>