<?xml version="1.0" encoding="utf-8"?>
<!-- Generator: Adobe Illustrator 21.0.0, SVG Export Plug-In . SVG Version: 6.00 Build 0)  -->
<svg version="1.1"
	 id="svg8" inkscape:export-filename="D:\Downloads\yt_logo.png" inkscape:export-xdpi="9.550128" inkscape:export-ydpi="9.550128" inkscape:version="0.92.5 (2060ec1f9f, 2020-04-08)" sodipodi:docname="yt_logo_sm.svg" xmlns:cc="http://creativecommons.org/ns#" xmlns:dc="http://purl.org/dc/elements/1.1/" xmlns:inkscape="http://www.inkscape.org/namespaces/inkscape" xmlns:rdf="http://www.w3.org/1999/02/22-rdf-syntax-ns#" xmlns:sodipodi="http://sodipodi.sourceforge.net/DTD/sodipodi-0.dtd" xmlns:svg="http://www.w3.org/2000/svg"
	 xmlns="http://www.w3.org/2000/svg" xmlns:xlink="http://www.w3.org/1999/xlink" x="0px" y="0px" viewBox="0 0 207 208.5"
	 style="enable-background:new 0 0 207 208.5;" xml:space="preserve">
<style type="text/css">
	.st0{fill:#FF0000;}
	.st1{fill:#FFFFFF;}
</style>
<sodipodi:namedview  bordercolor="#666666" borderopacity="1.0" id="base" inkscape:current-layer="layer1" inkscape:cx="419.38728" inkscape:cy="455.6922" inkscape:document-units="mm" inkscape:pageopacity="0.0" inkscape:pageshadow="2" inkscape:window-height="1017" inkscape:window-maximized="1" inkscape:window-width="2560" inkscape:window-x="-8" inkscape:window-y="-8" inkscape:zoom="0.98994949" pagecolor="#ffffff" showgrid="false">
	</sodipodi:namedview>
<g id="layer1" inkscape:groupmode="layer" inkscape:label="Layer 1">
	<circle id="path851" class="st0" cx="98.2" cy="98.4" r="96.4"/>
	<path id="path4542" inkscape:connector-curvature="0" class="st1" d="M60,163c-10.5-2.3-18.5-12-18.6-22.5c0-2.7,0.1-3.7,0.7-5
		c2.9-6.2,11.3-7.6,16.1-2.8c1.5,1.5,2.4,3.5,2.7,6c0.3,2.4,0.9,3.6,2.1,4.4c0.8,0.5,3.9,0.6,35.2,0.6h34.3l1.2-1.2
		c1-1,1.2-1.5,1.4-3.3c0.7-5.8,4.5-9.4,9.9-9.4c3.8,0,7,1.9,8.7,5.2c1.2,2.4,1.3,8,0,11.7c-2.5,7.4-8.2,13.2-15.4,15.7l-2.9,1
		l-36.6,0.1C68.5,163.4,61.9,163.4,60,163L60,163z M94.5,121.8c-2.2-0.8-4.5-3-5.5-5.2l-0.8-1.9L88,85.4l-0.1-29.3l-6.6,6.6
		c-7.5,7.5-8.9,8.4-12.7,8.4c-4.1,0-7.7-2.5-9.2-6.6c-0.9-2.3-0.6-6,0.7-8c1.4-2.3,32-32.7,33.8-33.5c2-0.9,5-1.1,7.3-0.3
		c1.8,0.6,2.9,1.7,18.1,16.8c17.9,17.8,17.8,17.7,17.8,21.9c0,4.2-2.7,7.9-6.6,9.2c-2.3,0.8-5.6,0.5-7.7-0.6
		c-0.9-0.5-4.3-3.4-8.2-7.4l-6.7-6.6v29c0,28.1,0,29-0.7,30.9c-0.8,2.1-2.9,4.4-5,5.4C100.5,122.3,96.4,122.5,94.5,121.8L94.5,121.8
		z"/>
</g>
</svg>
