<?xml version="1.0" encoding="UTF-8" standalone="no"?>
<!-- Generator: Adobe Illustrator 21.0.0, SVG Export Plug-In . SVG Version: 6.00 Build 0)  -->

<svg
   xmlns:dc="http://purl.org/dc/elements/1.1/"
   xmlns:cc="http://creativecommons.org/ns#"
   xmlns:rdf="http://www.w3.org/1999/02/22-rdf-syntax-ns#"
   xmlns:svg="http://www.w3.org/2000/svg"
   xmlns="http://www.w3.org/2000/svg"
   xmlns:sodipodi="http://sodipodi.sourceforge.net/DTD/sodipodi-0.dtd"
   xmlns:inkscape="http://www.inkscape.org/namespaces/inkscape"
   version="1.1"
   id="svg8"
   inkscape:export-filename="D:\Downloads\yt_logo.png"
   inkscape:export-xdpi="9.550128"
   inkscape:export-ydpi="9.550128"
   inkscape:version="0.92.5 (2060ec1f9f, 2020-04-08)"
   sodipodi:docname="yt_logo.svg"
   x="0px"
   y="0px"
   viewBox="0 0 366.1 365.4"
   style="enable-background:new 0 0 366.1 365.4;"
   xml:space="preserve"><metadata
   id="metadata13"><rdf:RDF><cc:Work
       rdf:about=""><dc:format>image/svg+xml</dc:format><dc:type
         rdf:resource="http://purl.org/dc/dcmitype/StillImage" /></cc:Work></rdf:RDF></metadata><defs
   id="defs11" />
<style
   type="text/css"
   id="style2">
	.st0{fill:#FFFFFF;}
	.st1{fill:#FF0000;}
	.st2{fill:#FFFFFF;stroke:#FFFFFF;stroke-width:6;stroke-linecap:square;stroke-linejoin:round;}
</style>
<sodipodi:namedview
   bordercolor="#666666"
   borderopacity="1.0"
   id="base"
   inkscape:current-layer="layer1"
   inkscape:cx="283.45118"
   inkscape:cy="158.21533"
   inkscape:document-units="mm"
   inkscape:pageopacity="0.0"
   inkscape:pageshadow="2"
   inkscape:window-height="914"
   inkscape:window-maximized="0"
   inkscape:window-width="1331"
   inkscape:window-x="889"
   inkscape:window-y="17"
   inkscape:zoom="0.49497475"
   pagecolor="#ffffff"
   showgrid="false">
	</sodipodi:namedview>
<g
   id="layer1"
   inkscape:groupmode="layer"
   inkscape:label="Layer 1">
	<ellipse
   id="path4563"
   class="st0"
   cx="184.2"
   cy="179.1"
   rx="121.9"
   ry="120.8"
   inkscape:export-filename="D:\Downloads\yt_logo_down.png"
   inkscape:export-xdpi="10.611399"
   inkscape:export-ydpi="10.611399" />
	
		<path
   id="path4529"
   inkscape:connector-curvature="0"
   inkscape:export-xdpi="10.611399"
   inkscape:export-ydpi="10.611399"
   sodipodi:nodetypes="cssssssssccscssscc"
   class="st1"
   d="M 169.1,361.6 C 134,359.3 100.4,346.9 72.6,325.9 40,301.5 16.6,267.1 6.1,227.9 0.5,207.1 -1.3,184.1 1,161.8 4.2,129.9 16.6,98.4 36,72.5 57.1,44.4 85.8,23 118.6,10.9 134.6,5 151.9,1.4 169.8,0.2 c 5.1,-0.3 17.3,-0.3 22.4,0 32.5,2.1 62.6,12.3 89.3,30.1 26,17.3 47.4,41.5 61.3,69.5 8.3,16.7 13.6,32.6 16.6,50.6 1.8,10.3 2.5,19.5 2.5,30.5 0,8 -0.2,12.6 -1.1,20.2 -3.1,28.4 -13.2,56.2 -29.3,80.3 -13,19.5 -30.6,37.1 -50.1,50.1 -11.4,7.6 -24.5,14.3 -37.1,19 -16.5,6.2 -33.9,9.8 -52.2,11 -4.5,0.5 -18.2,0.4 -23,0.1 z"
   style="fill:#dd0000;fill-opacity:1"
   inkscape:export-filename="D:\Downloads\yt_logo_down.png" />
	<path
   id="path4542"
   inkscape:connector-curvature="0"
   class="st0"
   d="M147.8,238.4c-9.4-2.1-16.5-10.7-16.6-20.1   c0-2.4,0.1-3.3,0.6-4.4c2.6-5.5,10.1-6.8,14.4-2.5c1.4,1.4,2.2,3.1,2.4,5.4c0.3,2.1,0.8,3.2,1.9,3.9c0.7,0.5,3.5,0.5,31.4,0.5h30.6   l1-1c0.9-0.9,1.1-1.4,1.3-2.9c0.6-5.2,4-8.4,8.9-8.4c3.4,0,6.2,1.7,7.8,4.7c1.1,2.2,1.1,7.1,0,10.4c-2.2,6.7-7.3,11.8-13.8,14   l-2.6,0.9l-32.7,0.1C155.5,238.8,149.5,238.8,147.8,238.4L147.8,238.4z M178.7,201.6c-1.9-0.7-4-2.7-4.9-4.6l-0.8-1.7l-0.1-26.1   l-0.1-26.1l-5.9,5.9c-6.7,6.7-8,7.5-11.4,7.5c-3.7,0-6.9-2.2-8.2-5.9c-0.8-2-0.5-5.3,0.6-7.2c1.2-2,28.6-29.2,30.2-29.9   c1.8-0.8,4.5-1,6.5-0.3c1.6,0.5,2.6,1.5,16.2,15c16,15.9,15.9,15.8,15.9,19.6c0,3.8-2.4,7.1-5.9,8.3c-2.1,0.7-5,0.5-6.9-0.5   c-0.8-0.4-3.8-3.1-7.4-6.6l-6-5.9v25.9c0,25.1,0,25.9-0.6,27.6c-0.7,1.8-2.6,3.9-4.4,4.9C184,202.1,180.4,202.2,178.7,201.6   L178.7,201.6z"
   inkscape:export-filename="D:\Downloads\yt_logo_down.png"
   inkscape:export-xdpi="10.611399"
   inkscape:export-ydpi="10.611399" />
	
		<path
   id="path4529-3"
   inkscape:connector-curvature="0"
   inkscape:export-xdpi="10.611399"
   inkscape:export-ydpi="10.611399"
   sodipodi:nodetypes="ccsscssccccssscscccccccc"
   class="st2"
   d="m 189.52374,301.05194 c 11.93973,-0.88913 23.49841,-3.42949 34.29497,-7.6211 40.77291,-15.62326 69.86012,-51.69649 76.21104,-94.75573 C 308.41297,142.78701 276.65837,88.677173 223.81871,68.354228 196.1287,57.811701 165.13621,57.811701 137.31918,68.735283 97.054344,84.485565 68.348185,120.43177 61.870247,163.23698 c -8.383215,55.88809 23.371386,109.99793 76.211043,130.32088 16.25835,6.09688 34.29497,8.76427 51.44245,7.49408 z m -19.05276,-11.0506 c -17.2745,-1.77826 -33.53286,-7.36706 -47.75892,-16.38537 -24.768587,-15.75028 -42.170108,-40.39185 -48.648047,-68.84398 -1.905276,-8.63725 -2.286331,-12.4478 -2.286331,-23.87946 0,-11.30463 0.381055,-15.2422 2.286331,-23.87946 9.399362,-41.91607 42.932217,-74.813836 84.594257,-83.324069 8.76427,-1.778258 11.43166,-2.032294 22.35524,-2.032294 10.92358,0 13.59097,0.254036 22.35524,2.032294 41.66203,8.510233 75.19489,41.535019 84.59426,83.324069 1.90527,8.51024 2.28633,12.57483 2.28633,23.62543 0,11.0506 -0.25404,13.71798 -2.0323,22.48225 -8.51023,41.66204 -41.53502,75.1949 -83.32407,84.59426 -7.74812,1.77826 -12.32079,2.28633 -22.1012,2.41335 -5.20776,0.12702 -10.66955,0 -12.32079,-0.12702 z"
   style="fill:#ffffff;stroke:#ffffff;stroke-width:9.50929134;stroke-linecap:square;stroke-linejoin:round;stroke-miterlimit:4;stroke-dasharray:none"
   inkscape:export-filename="D:\Downloads\yt_logo_down.png" />
<ellipse
   id="path4563-7"
   class="st0"
   cx="-227.07756"
   cy="179.73972"
   rx="121.9"
   ry="120.8"
   inkscape:export-filename="D:\OneDrive\Documents\Work\Repositories\YTMusicUploader\YTMusicUploader\Resources\Logo\yt_logo.png"
   inkscape:export-xdpi="10.611399"
   inkscape:export-ydpi="10.611399"
   style="fill:#ffffff" /><path
   id="path4529-1"
   inkscape:connector-curvature="0"
   inkscape:export-xdpi="10.611399"
   inkscape:export-ydpi="10.611399"
   sodipodi:nodetypes="cssssssssccscssscc"
   class="st1"
   d="m -242.17757,362.23973 c -35.1,-2.3 -68.7,-14.7 -96.50001,-35.7 -32.6,-24.4 -56,-58.8 -66.5,-98 -5.6,-20.8 -7.4,-43.8 -5.1,-66.1 3.2,-31.9 15.6,-63.400003 35,-89.300003 21.1,-28.1 49.8,-49.5 82.60001,-61.6 16,-5.8999996 33.3,-9.4999996 51.2,-10.69999965 5.1,-0.3 17.3,-0.3 22.4,0 32.5,2.10000005 62.6,12.29999965 89.3,30.09999965 26,17.3 47.399999,41.5 61.299999,69.500003 8.3,16.7 13.6,32.6 16.6,50.6 1.8,10.3 2.5,19.5 2.5,30.5 0,8 -0.2,12.6 -1.1,20.2 -3.1,28.4 -13.2,56.2 -29.3,80.3 -13,19.5 -30.599999,37.1 -50.099999,50.1 -11.4,7.6 -24.5,14.3 -37.1,19 -16.5,6.2 -33.9,9.8 -52.2,11 -4.5,0.5 -18.2,0.4 -23,0.1 z"
   style="fill:#ff0000"
   inkscape:export-filename="D:\OneDrive\Documents\Work\Repositories\YTMusicUploader\YTMusicUploader\Resources\Logo\yt_logo.png" /><path
   id="path4542-3"
   inkscape:connector-curvature="0"
   class="st0"
   d="m -263.47757,239.03973 c -9.4,-2.1 -16.5,-10.7 -16.6,-20.1 0,-2.4 0.1,-3.3 0.6,-4.4 2.6,-5.5 10.1,-6.8 14.4,-2.5 1.4,1.4 2.2,3.1 2.4,5.4 0.3,2.1 0.8,3.2 1.9,3.9 0.7,0.5 3.5,0.5 31.4,0.5 h 30.6 l 1,-1 c 0.9,-0.9 1.1,-1.4 1.3,-2.9 0.6,-5.2 4,-8.4 8.9,-8.4 3.4,0 6.2,1.7 7.8,4.7 1.1,2.2 1.1,7.1 0,10.4 -2.2,6.7 -7.3,11.8 -13.8,14 l -2.6,0.9 -32.7,0.1 c -26.9,-0.2 -32.9,-0.2 -34.6,-0.6 z m 30.9,-36.8 c -1.9,-0.7 -4,-2.7 -4.9,-4.6 l -0.8,-1.7 -0.1,-26.1 -0.1,-26.1 -5.9,5.9 c -6.7,6.7 -8,7.5 -11.4,7.5 -3.7,0 -6.9,-2.2 -8.2,-5.9 -0.8,-2 -0.5,-5.3 0.6,-7.2 1.2,-2 28.6,-29.2 30.2,-29.9 1.8,-0.8 4.5,-1 6.5,-0.3 1.6,0.5 2.6,1.5 16.2,15 16,15.9 15.9,15.8 15.9,19.6 0,3.8 -2.4,7.1 -5.9,8.3 -2.1,0.7 -5,0.5 -6.9,-0.5 -0.8,-0.4 -3.8,-3.1 -7.4,-6.6 l -6,-5.9 v 25.9 c 0,25.1 0,25.9 -0.6,27.6 -0.7,1.8 -2.6,3.9 -4.4,4.9 -1.5,0.6 -5.1,0.7 -6.8,0.1 z"
   inkscape:export-filename="D:\OneDrive\Documents\Work\Repositories\YTMusicUploader\YTMusicUploader\Resources\Logo\yt_logo.png"
   inkscape:export-xdpi="10.611399"
   inkscape:export-ydpi="10.611399"
   style="fill:#ffffff" /><path
   id="path4529-3-9"
   inkscape:connector-curvature="0"
   inkscape:export-xdpi="10.611399"
   inkscape:export-ydpi="10.611399"
   sodipodi:nodetypes="ccsscssccccssscscccccccc"
   class="st2"
   d="m -221.75383,301.69167 c 11.93973,-0.88913 23.49841,-3.42949 34.29497,-7.6211 40.77291,-15.62326 69.86012,-51.69649 76.21104,-94.75573 8.38322,-55.8881 -23.37138,-109.997933 -76.21104,-130.320883 -27.69001,-10.54252 -58.6825,-10.54252 -86.49953,0.38106 -40.26484,15.75028 -68.971,51.696483 -75.44894,94.501693 -8.38321,55.88809 23.37139,109.99793 76.21105,130.32088 16.25835,6.09688 34.29497,8.76427 51.44245,7.49408 z m -19.05276,-11.0506 c -17.2745,-1.77826 -33.53286,-7.36706 -47.75892,-16.38537 -24.76859,-15.75028 -42.17011,-40.39185 -48.64805,-68.84398 -1.90528,-8.63725 -2.28633,-12.4478 -2.28633,-23.87946 0,-11.30463 0.38105,-15.2422 2.28633,-23.87946 9.39936,-41.91607 42.93222,-74.813833 84.59426,-83.324063 8.76427,-1.77826 11.43166,-2.0323 22.35524,-2.0323 10.92358,0 13.59097,0.25404 22.35524,2.0323 41.66203,8.51023 75.19489,41.535013 84.59426,83.324063 1.90527,8.51024 2.28633,12.57483 2.28633,23.62543 0,11.0506 -0.25404,13.71798 -2.0323,22.48225 -8.51023,41.66204 -41.53502,75.1949 -83.32407,84.59426 -7.74812,1.77826 -12.32079,2.28633 -22.1012,2.41335 -5.20776,0.12702 -10.66955,0 -12.32079,-0.12702 z"
   style="fill:#ffffff;stroke:#ffffff;stroke-width:9.50929165;stroke-linecap:square;stroke-linejoin:round;stroke-miterlimit:4;stroke-dasharray:none"
   inkscape:export-filename="D:\OneDrive\Documents\Work\Repositories\YTMusicUploader\YTMusicUploader\Resources\Logo\yt_logo.png" /><ellipse
   id="path4563-9"
   class="st0"
   cx="595.18658"
   cy="173.67879"
   rx="121.9"
   ry="120.8"
   inkscape:export-filename="D:\Downloads\yt_logo_down.png"
   inkscape:export-xdpi="10.611399"
   inkscape:export-ydpi="10.611399"
   style="fill:#ffffff" /><path
   id="path4529-5"
   inkscape:connector-curvature="0"
   inkscape:export-xdpi="10.611399"
   inkscape:export-ydpi="10.611399"
   sodipodi:nodetypes="cssssssssccscssscc"
   class="st1"
   d="m 580.08659,356.17882 c -35.1,-2.3 -68.7,-14.7 -96.5,-35.7 -32.6,-24.4 -56,-58.8 -66.5,-98 -5.6,-20.8 -7.4,-43.8 -5.1,-66.1 3.2,-31.9 15.6,-63.4 35,-89.3 21.1,-28.1 49.8,-49.5 82.6,-61.6000005 16,-5.89999997 33.3,-9.5 51.2,-10.7 5.1,-0.3 17.3,-0.3 22.4,0 32.5,2.1 62.6,12.3 89.3,30.1000005 26,17.3 47.4,41.5 61.3,69.5 8.3,16.7 13.6,32.6 16.6,50.6 1.8,10.3 2.5,19.5 2.5,30.5 0,8 -0.2,12.6 -1.1,20.2 -3.1,28.4 -13.2,56.2 -29.3,80.3 -13,19.5 -30.6,37.1 -50.1,50.1 -11.4,7.6 -24.5,14.3 -37.1,19 -16.5,6.2 -33.9,9.8 -52.2,11 -4.5,0.5 -18.2,0.4 -23,0.1 z"
   style="fill:#c00000;fill-opacity:1"
   inkscape:export-filename="D:\Downloads\yt_logo_down.png" /><path
   id="path4542-5"
   inkscape:connector-curvature="0"
   class="st0"
   d="m 558.78659,232.97882 c -9.4,-2.1 -16.5,-10.7 -16.6,-20.1 0,-2.4 0.1,-3.3 0.6,-4.4 2.6,-5.5 10.1,-6.8 14.4,-2.5 1.4,1.4 2.2,3.1 2.4,5.4 0.3,2.1 0.8,3.2 1.9,3.9 0.7,0.5 3.5,0.5 31.4,0.5 h 30.6 l 1,-1 c 0.9,-0.9 1.1,-1.4 1.3,-2.9 0.6,-5.2 4,-8.4 8.9,-8.4 3.4,0 6.2,1.7 7.8,4.7 1.1,2.2 1.1,7.1 0,10.4 -2.2,6.7 -7.3,11.8 -13.8,14 l -2.6,0.9 -32.7,0.1 c -26.9,-0.2 -32.9,-0.2 -34.6,-0.6 z m 30.9,-36.8 c -1.9,-0.7 -4,-2.7 -4.9,-4.6 l -0.8,-1.7 -0.1,-26.1 -0.1,-26.1 -5.9,5.9 c -6.7,6.7 -8,7.5 -11.4,7.5 -3.7,0 -6.9,-2.2 -8.2,-5.9 -0.8,-2 -0.5,-5.3 0.6,-7.2 1.2,-2 28.6,-29.2 30.2,-29.9 1.8,-0.8 4.5,-1 6.5,-0.3 1.6,0.5 2.6,1.5 16.2,15 16,15.9 15.9,15.8 15.9,19.6 0,3.8 -2.4,7.1 -5.9,8.3 -2.1,0.7 -5,0.5 -6.9,-0.5 -0.8,-0.4 -3.8,-3.1 -7.4,-6.6 l -6,-5.9 v 25.9 c 0,25.1 0,25.9 -0.6,27.6 -0.7,1.8 -2.6,3.9 -4.4,4.9 -1.5,0.6 -5.1,0.7 -6.8,0.1 z"
   inkscape:export-filename="D:\Downloads\yt_logo_down.png"
   inkscape:export-xdpi="10.611399"
   inkscape:export-ydpi="10.611399"
   style="fill:#ffffff" /><path
   id="path4529-3-1"
   inkscape:connector-curvature="0"
   inkscape:export-xdpi="10.611399"
   inkscape:export-ydpi="10.611399"
   sodipodi:nodetypes="ccsscssccccssscscccccccc"
   class="st2"
   d="m 600.51033,295.63076 c 11.93973,-0.88913 23.49841,-3.42949 34.29497,-7.6211 40.77291,-15.62326 69.86012,-51.69649 76.21104,-94.75573 8.38322,-55.8881 -23.37138,-109.99794 -76.21104,-130.32088 -27.69001,-10.54253 -58.6825,-10.54253 -86.49953,0.38105 -40.26484,15.75028 -68.971,51.69649 -75.44894,94.5017 -8.38321,55.88809 23.37139,109.99793 76.21105,130.32088 16.25835,6.09688 34.29497,8.76427 51.44245,7.49408 z m -19.05276,-11.0506 c -17.2745,-1.77826 -33.53286,-7.36706 -47.75892,-16.38537 -24.76859,-15.75028 -42.17011,-40.39185 -48.64805,-68.84398 -1.90528,-8.63725 -2.28633,-12.4478 -2.28633,-23.87946 0,-11.30463 0.38105,-15.2422 2.28633,-23.87946 9.39936,-41.91607 42.93222,-74.81384 84.59426,-83.32407 8.76427,-1.77826 11.43166,-2.0323 22.35524,-2.0323 10.92358,0 13.59097,0.25404 22.35524,2.0323 41.66203,8.51023 75.19489,41.53502 84.59426,83.32407 1.90527,8.51024 2.28633,12.57483 2.28633,23.62543 0,11.0506 -0.25404,13.71798 -2.0323,22.48225 -8.51023,41.66204 -41.53502,75.1949 -83.32407,84.59426 -7.74812,1.77826 -12.32079,2.28633 -22.1012,2.41335 -5.20776,0.12702 -10.66955,0 -12.32079,-0.12702 z"
   style="fill:#ffffff;stroke:#ffffff;stroke-width:9.50929165;stroke-linecap:square;stroke-linejoin:round;stroke-miterlimit:4;stroke-dasharray:none"
   inkscape:export-filename="D:\Downloads\yt_logo_down.png" /></g>
</svg>