<?xml version="1.0" encoding="UTF-8" standalone="no"?>
<!-- Created with Inkscape (http://www.inkscape.org/) -->

<svg
   xmlns:dc="http://purl.org/dc/elements/1.1/"
   xmlns:cc="http://creativecommons.org/ns#"
   xmlns:rdf="http://www.w3.org/1999/02/22-rdf-syntax-ns#"
   xmlns:svg="http://www.w3.org/2000/svg"
   xmlns="http://www.w3.org/2000/svg"
   xmlns:sodipodi="http://sodipodi.sourceforge.net/DTD/sodipodi-0.dtd"
   xmlns:inkscape="http://www.inkscape.org/namespaces/inkscape"
   width="210mm"
   height="297mm"
   viewBox="0 0 210 297"
   version="1.1"
   id="svg8"
   inkscape:export-filename="D:\Downloads\yt_logo_lg.png"
   inkscape:export-xdpi="50.93401"
   inkscape:export-ydpi="50.93401"
   inkscape:version="0.92.5 (2060ec1f9f, 2020-04-08)"
   sodipodi:docname="yt_logo.svg">
  <defs
     id="defs2" />
  <sodipodi:namedview
     id="base"
     pagecolor="#ffffff"
     bordercolor="#666666"
     borderopacity="1.0"
     inkscape:pageopacity="0.0"
     inkscape:pageshadow="2"
     inkscape:zoom="0.7"
     inkscape:cx="59.992224"
     inkscape:cy="396.03409"
     inkscape:document-units="mm"
     inkscape:current-layer="layer1"
     showgrid="false"
     inkscape:window-width="2560"
     inkscape:window-height="1017"
     inkscape:window-x="-8"
     inkscape:window-y="-8"
     inkscape:window-maximized="1" />
  <metadata
     id="metadata5">
    <rdf:RDF>
      <cc:Work
         rdf:about="">
        <dc:format>image/svg+xml</dc:format>
        <dc:type
           rdf:resource="http://purl.org/dc/dcmitype/StillImage" />
        <dc:title></dc:title>
      </cc:Work>
    </rdf:RDF>
  </metadata>
  <g
     inkscape:label="Layer 1"
     inkscape:groupmode="layer"
     id="layer1">
    <ellipse
       style="fill:#ffffff;fill-opacity:1;stroke:none;stroke-width:2.89300013;stroke-miterlimit:4;stroke-dasharray:none;stroke-opacity:1"
       id="path4563"
       cx="113.45628"
       cy="160.5835"
       rx="42.994793"
       ry="42.616814" />
    <path
       style="fill:#ff0000;fill-opacity:1;stroke-width:0.09293057"
       d="M 108.14923,224.98621 C 95.763208,224.15915 83.922835,219.78567 74.090176,212.40582 62.59024,203.77459 54.354008,191.63004 50.628954,177.81157 c -1.979542,-7.34331 -2.608984,-15.44102 -1.81128,-23.30186 1.142795,-11.26148 5.498745,-22.36871 12.35479,-31.50346 7.449893,-9.92598 17.561671,-17.46528 29.154389,-21.7374 5.657713,-2.084973 11.735527,-3.354183 18.054707,-3.770303 1.793,-0.11807 6.1061,-0.11807 7.8991,0 11.46195,0.75478 22.09454,4.337003 31.50345,10.613833 9.17268,6.11923 16.70643,14.65346 21.63861,24.51218 2.94258,5.88183 4.7829,11.48581 5.86344,17.85494 0.6192,3.64976 0.88537,6.88684 0.88537,10.76768 0,2.80633 -0.0857,4.43508 -0.37392,7.10919 -1.08178,10.03585 -4.65174,19.82959 -10.33171,28.34382 -4.5896,6.87977 -10.80202,13.09219 -17.68179,17.68179 -4.01669,2.67959 -8.63301,5.04557 -13.10321,6.71571 -5.81685,2.17327 -11.95533,3.47371 -18.40024,3.89812 -1.63371,0.10757 -6.46193,0.10188 -8.13143,-0.01 z m 6.55161,-30.38153 c 3.31215,-0.2463 6.53487,-0.95798 9.52538,-2.10349 11.3247,-4.33794 19.38775,-14.36202 21.17795,-26.32869 2.32109,-15.5154 -6.4789,-30.54885 -21.17795,-36.17933 -7.68923,-2.94537 -16.30079,-2.91347 -24.01576,0.0889 -11.187232,4.35372 -19.17047,14.35167 -20.952092,26.23974 -2.324373,15.50962 6.478936,30.54898 21.177632,36.17933 4.4856,1.71821 9.5008,2.45775 14.26484,2.10349 z m -5.28979,-3.06817 c -4.78243,-0.49345 -9.32726,-2.05268 -13.269531,-4.55244 -6.880253,-4.36273 -11.723863,-11.22158 -13.500104,-19.11698 -0.539733,-2.39911 -0.644057,-3.4714 -0.644057,-6.61991 0,-3.14852 0.104324,-4.22081 0.644057,-6.61992 2.615405,-11.62549 11.912802,-20.79292 23.483155,-23.15489 2.41767,-0.49354 3.1813,-0.56279 6.20654,-0.56279 3.02524,0 3.78887,0.0692 6.20654,0.56279 11.57034,2.36197 20.86773,11.5294 23.48314,23.15489 0.53468,2.37667 0.64289,3.47781 0.64597,6.57345 0.003,3.07849 -0.0629,3.8136 -0.56085,6.25301 -2.36195,11.57026 -11.53049,20.86874 -23.15488,23.48307 -2.15226,0.48405 -3.43722,0.62055 -6.15527,0.65391 -1.40557,0.0172 -2.92869,-0.007 -3.38471,-0.0542 z"
       id="path4529"
       inkscape:connector-curvature="0"
       inkscape:export-xdpi="9.550128"
       inkscape:export-ydpi="9.550128"
       sodipodi:nodetypes="cssssssssccscssscccccsscssccccssscscccccccc" />
    <circle
       style="fill:#ff0000;fill-opacity:1;stroke:#ffffff;stroke-width:5.94000006;stroke-miterlimit:4;stroke-dasharray:none;stroke-opacity:1"
       id="path4569"
       cx="112.25893"
       cy="161.15536"
       r="39.309525" />
    <path
       style="fill:#ffffff;stroke-width:0.11188731"
       d="m 100.62568,181.51296 c -3.316993,-0.72525 -5.8323,-3.76764 -5.870073,-7.10018 -0.0095,-0.85966 0.03266,-1.15948 0.221695,-1.56769 0.900831,-1.9461 3.55328,-2.40824 5.067118,-0.88282 0.47651,0.48012 0.76046,1.10388 0.8609,1.89107 0.0952,0.74594 0.28037,1.13725 0.65383,1.38197 0.25658,0.1681 1.23842,0.18459 11.09375,0.18459 h 10.81223 l 0.36962,-0.36962 c 0.30416,-0.30416 0.38361,-0.48748 0.44853,-1.03496 0.21726,-1.8336 1.41946,-2.97304 3.13653,-2.97304 1.20433,0 2.20209,0.60248 2.73917,1.65396 0.39026,0.76408 0.39445,2.51721 0.01,3.6747 -0.78225,2.34756 -2.57605,4.17555 -4.85482,4.94739 l -0.9191,0.31144 -11.52439,0.0191 c -9.54029,0.0158 -11.64821,-0.006 -12.24361,-0.13702 z M 111.507,168.53008 c -0.67854,-0.25024 -1.41619,-0.94967 -1.72698,-1.6375 l -0.26736,-0.59162 -0.0317,-9.22315 -0.0317,-9.22309 -2.09415,2.08292 c -2.37712,2.36437 -2.81414,2.65409 -4.00635,2.65603 -1.30626,0.003 -2.41698,-0.79122 -2.90801,-2.07695 -0.27149,-0.71055 -0.17412,-1.88321 0.20964,-2.52895 0.42585,-0.7165 10.0978,-10.30212 10.65251,-10.5574 0.64501,-0.29687 1.58936,-0.34104 2.31065,-0.10811 0.55982,0.18079 0.92826,0.52215 5.71298,5.29339 5.63947,5.62358 5.61055,5.58796 5.60306,6.90425 -0.006,1.3347 -0.83977,2.50626 -2.07058,2.91508 -0.7329,0.24359 -1.76164,0.16873 -2.43941,-0.17698 -0.29877,-0.15255 -1.34118,-1.0864 -2.59809,-2.32786 l -2.09906,-2.07328 v 9.13391 c 0,8.84537 -0.006,9.15273 -0.22265,9.72917 -0.24231,0.64761 -0.91516,1.38286 -1.56747,1.71273 -0.53273,0.26927 -1.81882,0.32103 -2.42523,0.0973 z"
       id="path4542"
       inkscape:connector-curvature="0" />
  </g>
</svg>
