<?xml version="1.0" encoding="utf-8"?>
<!-- Generator: Adobe Illustrator 21.0.0, SVG Export Plug-In . SVG Version: 6.00 Build 0)  -->
<svg version="1.1"
	 id="svg8" inkscape:export-filename="D:\Downloads\yt_logo.png" inkscape:export-xdpi="9.550128" inkscape:export-ydpi="9.550128" inkscape:version="0.92.5 (2060ec1f9f, 2020-04-08)" sodipodi:docname="yt_logo.svg" xmlns:cc="http://creativecommons.org/ns#" xmlns:dc="http://purl.org/dc/elements/1.1/" xmlns:inkscape="http://www.inkscape.org/namespaces/inkscape" xmlns:rdf="http://www.w3.org/1999/02/22-rdf-syntax-ns#" xmlns:sodipodi="http://sodipodi.sourceforge.net/DTD/sodipodi-0.dtd" xmlns:svg="http://www.w3.org/2000/svg"
	 xmlns="http://www.w3.org/2000/svg" xmlns:xlink="http://www.w3.org/1999/xlink" x="0px" y="0px" viewBox="0 0 366.1 365.4"
	 style="enable-background:new 0 0 366.1 365.4;" xml:space="preserve">
<style type="text/css">
	.st0{fill:#FFFFFF;}
	.st1{fill:#FF0000;}
	.st2{fill:#FFFFFF;stroke:#FFFFFF;stroke-width:6;stroke-linecap:square;stroke-linejoin:round;}
</style>
<sodipodi:namedview  bordercolor="#666666" borderopacity="1.0" id="base" inkscape:current-layer="layer1" inkscape:cx="309.80386" inkscape:cy="525.37062" inkscape:document-units="mm" inkscape:pageopacity="0.0" inkscape:pageshadow="2" inkscape:window-height="1017" inkscape:window-maximized="1" inkscape:window-width="2560" inkscape:window-x="-8" inkscape:window-y="-8" inkscape:zoom="1.4" pagecolor="#ffffff" showgrid="false">
	</sodipodi:namedview>
<g id="layer1" inkscape:groupmode="layer" inkscape:label="Layer 1">
	<ellipse id="path4563" class="st0" cx="184.2" cy="179.1" rx="121.9" ry="120.8"/>
	
		<path id="path4529" inkscape:connector-curvature="0" inkscape:export-xdpi="9.550128" inkscape:export-ydpi="9.550128" sodipodi:nodetypes="cssssssssccscssscccccsscssccccssscscccccccc" class="st1" d="
		M169.1,361.6c-35.1-2.3-68.7-14.7-96.5-35.7C40,301.5,16.6,267.1,6.1,227.9c-5.6-20.8-7.4-43.8-5.1-66.1
		c3.2-31.9,15.6-63.4,35-89.3C57.1,44.4,85.8,23,118.6,10.9c16-5.9,33.3-9.5,51.2-10.7c5.1-0.3,17.3-0.3,22.4,0
		c32.5,2.1,62.6,12.3,89.3,30.1c26,17.3,47.4,41.5,61.3,69.5c8.3,16.7,13.6,32.6,16.6,50.6c1.8,10.3,2.5,19.5,2.5,30.5
		c0,8-0.2,12.6-1.1,20.2c-3.1,28.4-13.2,56.2-29.3,80.3c-13,19.5-30.6,37.1-50.1,50.1c-11.4,7.6-24.5,14.3-37.1,19
		c-16.5,6.2-33.9,9.8-52.2,11C187.6,362,173.9,361.9,169.1,361.6L169.1,361.6z M187.7,275.5c9.4-0.7,18.5-2.7,27-6
		c32.1-12.3,55-40.7,60-74.6c6.6-44-18.4-86.6-60-102.6c-21.8-8.3-46.2-8.3-68.1,0.3C114.9,105,92.3,133.3,87.2,167
		c-6.6,44,18.4,86.6,60,102.6C160,274.4,174.2,276.5,187.7,275.5L187.7,275.5z M172.7,266.8c-13.6-1.4-26.4-5.8-37.6-12.9
		c-19.5-12.4-33.2-31.8-38.3-54.2c-1.5-6.8-1.8-9.8-1.8-18.8c0-8.9,0.3-12,1.8-18.8c7.4-33,33.8-58.9,66.6-65.6
		c6.9-1.4,9-1.6,17.6-1.6c8.6,0,10.7,0.2,17.6,1.6c32.8,6.7,59.2,32.7,66.6,65.6c1.5,6.7,1.8,9.9,1.8,18.6c0,8.7-0.2,10.8-1.6,17.7
		c-6.7,32.8-32.7,59.2-65.6,66.6c-6.1,1.4-9.7,1.8-17.4,1.9C178.3,267,174,266.9,172.7,266.8L172.7,266.8z"/>
	<path id="path4542" inkscape:connector-curvature="0" class="st0" d="M147.8,238.4c-9.4-2.1-16.5-10.7-16.6-20.1
		c0-2.4,0.1-3.3,0.6-4.4c2.6-5.5,10.1-6.8,14.4-2.5c1.4,1.4,2.2,3.1,2.4,5.4c0.3,2.1,0.8,3.2,1.9,3.9c0.7,0.5,3.5,0.5,31.4,0.5h30.6
		l1-1c0.9-0.9,1.1-1.4,1.3-2.9c0.6-5.2,4-8.4,8.9-8.4c3.4,0,6.2,1.7,7.8,4.7c1.1,2.2,1.1,7.1,0,10.4c-2.2,6.7-7.3,11.8-13.8,14
		l-2.6,0.9l-32.7,0.1C155.5,238.8,149.5,238.8,147.8,238.4L147.8,238.4z M178.7,201.6c-1.9-0.7-4-2.7-4.9-4.6l-0.8-1.7l-0.1-26.1
		l-0.1-26.1l-5.9,5.9c-6.7,6.7-8,7.5-11.4,7.5c-3.7,0-6.9-2.2-8.2-5.9c-0.8-2-0.5-5.3,0.6-7.2c1.2-2,28.6-29.2,30.2-29.9
		c1.8-0.8,4.5-1,6.5-0.3c1.6,0.5,2.6,1.5,16.2,15c16,15.9,15.9,15.8,15.9,19.6c0,3.8-2.4,7.1-5.9,8.3c-2.1,0.7-5,0.5-6.9-0.5
		c-0.8-0.4-3.8-3.1-7.4-6.6l-6-5.9v25.9c0,25.1,0,25.9-0.6,27.6c-0.7,1.8-2.6,3.9-4.4,4.9C184,202.1,180.4,202.2,178.7,201.6
		L178.7,201.6z"/>
	
		<path id="path4529-3" inkscape:connector-curvature="0" inkscape:export-xdpi="9.550128" inkscape:export-ydpi="9.550128" sodipodi:nodetypes="ccsscssccccssscscccccccc" class="st2" d="
		M187.7,275.5c9.4-0.7,18.5-2.7,27-6c32.1-12.3,55-40.7,60-74.6c6.6-44-18.4-86.6-60-102.6c-21.8-8.3-46.2-8.3-68.1,0.3
		C114.9,105,92.3,133.3,87.2,167c-6.6,44,18.4,86.6,60,102.6C160,274.4,174.2,276.5,187.7,275.5L187.7,275.5z M172.7,266.8
		c-13.6-1.4-26.4-5.8-37.6-12.9c-19.5-12.4-33.2-31.8-38.3-54.2c-1.5-6.8-1.8-9.8-1.8-18.8c0-8.9,0.3-12,1.8-18.8
		c7.4-33,33.8-58.9,66.6-65.6c6.9-1.4,9-1.6,17.6-1.6c8.6,0,10.7,0.2,17.6,1.6c32.8,6.7,59.2,32.7,66.6,65.6
		c1.5,6.7,1.8,9.9,1.8,18.6c0,8.7-0.2,10.8-1.6,17.7c-6.7,32.8-32.7,59.2-65.6,66.6c-6.1,1.4-9.7,1.8-17.4,1.9
		C178.3,267,174,266.9,172.7,266.8L172.7,266.8z"/>
</g>
</svg>
